<svg width="107" height="107" viewBox="0 0 107 107" fill="none" xmlns="http://www.w3.org/2000/svg">
<path d="M78.75 88.5126V61.6875H84.4375V88.5126V89.7197L85.2911 88.8662L93.5844 80.5728L97.6054 84.5938L81.5938 100.605L65.5821 84.5938L69.6031 80.5728L77.8964 88.8662L78.75 89.7197V88.5126Z" stroke="#081371"/>
<path d="M24.25 94.625V95.125H24.75H57.6875V100.812H24.7515C23.1116 100.808 21.5402 100.154 20.3806 98.9943C19.2212 97.8349 18.5676 96.2639 18.5625 94.6242V14.3757C18.5676 12.7361 19.2212 11.165 20.3806 10.0056C21.54 8.84617 23.1111 8.19257 24.7508 8.18748H58.1875V8.18766L58.2012 8.18729C58.5684 8.17724 58.9333 8.24697 59.271 8.39167C59.6086 8.53636 59.9108 8.75258 60.1568 9.0254L60.1654 9.03501L60.1746 9.04416L83.5808 32.4504L83.5899 32.4595L83.5994 32.468C83.8721 32.7142 84.0883 33.0165 84.233 33.3541C84.3777 33.6918 84.4475 34.0568 84.4377 34.4241L84.4375 34.4241V34.4375V50.6562H78.75V41.125V40.625H78.25H58.189C56.5491 40.6201 54.9777 39.9665 53.8181 38.8069C52.6588 37.6475 52.0052 36.0767 52 34.4372C52 34.4368 52 34.4364 52 34.436L52 14.375V13.875H51.5H24.75H24.25V14.375V94.625ZM58.5411 15.3589L57.6875 14.5054V15.7125V34.4375V34.9375H58.1875H76.9125H78.1196L77.2661 34.0839L58.5411 15.3589Z" stroke="#081371"/>
</svg>
