<svg width="16" height="19" viewBox="0 0 20 20" fill="none" xmlns="http://www.w3.org/2000/svg">
<path d="M17.778 3.33334H2.22244C1.92775 3.33334 1.64514 3.45041 1.43676 3.65878C1.22839 3.86715 1.11133 4.14977 1.11133 4.44445V15.5556C1.11133 15.8502 1.22839 16.1329 1.43676 16.3412C1.64514 16.5496 1.92775 16.6667 2.22244 16.6667H17.778C18.0727 16.6667 18.3553 16.5496 18.5637 16.3412C18.772 16.1329 18.8891 15.8502 18.8891 15.5556V4.44445C18.8891 4.14977 18.772 3.86715 18.5637 3.65878C18.3553 3.45041 18.0727 3.33334 17.778 3.33334V3.33334ZM16.9224 15.5556H3.14466L7.03355 11.5333L6.23355 10.7611L2.22244 14.9111V5.2889L9.128 12.1611C9.33618 12.3681 9.61779 12.4842 9.91133 12.4842C10.2049 12.4842 10.4865 12.3681 10.6947 12.1611L17.778 5.11668V14.8389L13.6891 10.75L12.9058 11.5333L16.9224 15.5556ZM2.95022 4.44445H16.878L9.91133 11.3722L2.95022 4.44445Z" fill="black"/>
</svg>
