<svg width="861" height="543" viewBox="0 0 861 543" fill="none" xmlns="http://www.w3.org/2000/svg">
<g filter="url(#filter0_d_122_3)">
<rect x="18" y="38" width="800" height="460" rx="4" fill="white"/>
<rect x="18.5" y="38.5" width="799" height="459" rx="3.5" stroke="#B8B8B8"/>
</g>
<path d="M804.043 48.6667L798.572 54.6501L793.102 48.6667L790.953 51.0167L796.424 57.0001L790.953 62.9834L793.102 65.3334L798.572 59.3501L804.043 65.3334L806.191 62.9834L800.721 57.0001L806.191 51.0167L804.043 48.6667Z" fill="black"/>
<g filter="url(#filter1_d_122_3)">
<rect x="379" y="46" width="432" height="443" rx="4" fill="#FAFAFC"/>
</g>
<rect x="400" y="438" width="380" height="42" rx="4" fill="#2867D9"/>
<path d="M571.07 460.396C571.07 460.218 571.043 460.058 570.988 459.917C570.938 459.771 570.842 459.639 570.701 459.521C570.56 459.397 570.362 459.277 570.106 459.158C569.851 459.04 569.521 458.917 569.115 458.789C568.664 458.643 568.236 458.479 567.83 458.297C567.429 458.115 567.074 457.903 566.764 457.661C566.458 457.415 566.217 457.13 566.039 456.807C565.866 456.483 565.779 456.107 565.779 455.679C565.779 455.264 565.87 454.888 566.053 454.551C566.235 454.209 566.49 453.917 566.818 453.676C567.146 453.43 567.534 453.241 567.98 453.108C568.432 452.976 568.926 452.91 569.464 452.91C570.198 452.91 570.838 453.042 571.385 453.307C571.932 453.571 572.355 453.933 572.656 454.394C572.962 454.854 573.114 455.38 573.114 455.973H571.077C571.077 455.681 571.016 455.426 570.893 455.207C570.774 454.984 570.592 454.808 570.346 454.681C570.104 454.553 569.799 454.489 569.43 454.489C569.074 454.489 568.778 454.544 568.541 454.653C568.304 454.758 568.126 454.902 568.008 455.084C567.889 455.262 567.83 455.462 567.83 455.686C567.83 455.854 567.871 456.007 567.953 456.144C568.04 456.28 568.167 456.408 568.336 456.526C568.505 456.645 568.712 456.757 568.958 456.861C569.204 456.966 569.489 457.069 569.812 457.169C570.355 457.333 570.831 457.518 571.241 457.723C571.656 457.928 572.002 458.158 572.28 458.413C572.558 458.668 572.768 458.958 572.909 459.281C573.05 459.605 573.121 459.972 573.121 460.382C573.121 460.815 573.037 461.202 572.868 461.544C572.7 461.886 572.456 462.175 572.137 462.412C571.818 462.649 571.437 462.829 570.995 462.952C570.553 463.075 570.059 463.137 569.512 463.137C569.02 463.137 568.534 463.073 568.056 462.945C567.577 462.813 567.142 462.615 566.75 462.351C566.363 462.086 566.053 461.749 565.82 461.339C565.588 460.929 565.472 460.443 565.472 459.883H567.529C567.529 460.193 567.577 460.455 567.673 460.669C567.769 460.883 567.903 461.056 568.076 461.188C568.254 461.321 568.464 461.416 568.705 461.476C568.951 461.535 569.22 461.564 569.512 461.564C569.867 461.564 570.159 461.514 570.387 461.414C570.619 461.314 570.79 461.175 570.899 460.997C571.013 460.819 571.07 460.619 571.07 460.396ZM578.768 461.229V455.604H580.736V463H578.884L578.768 461.229ZM578.986 459.712L579.567 459.698C579.567 460.19 579.51 460.648 579.396 461.072C579.283 461.492 579.112 461.856 578.884 462.166C578.656 462.471 578.369 462.711 578.022 462.884C577.676 463.052 577.268 463.137 576.799 463.137C576.439 463.137 576.106 463.087 575.801 462.986C575.5 462.882 575.24 462.72 575.021 462.501C574.807 462.278 574.639 461.993 574.516 461.646C574.397 461.296 574.338 460.874 574.338 460.382V455.604H576.307V460.396C576.307 460.614 576.332 460.799 576.382 460.949C576.437 461.1 576.512 461.223 576.607 461.318C576.703 461.414 576.815 461.482 576.942 461.523C577.075 461.564 577.22 461.585 577.38 461.585C577.785 461.585 578.104 461.503 578.337 461.339C578.574 461.175 578.74 460.951 578.836 460.669C578.936 460.382 578.986 460.063 578.986 459.712ZM582.24 452.5H584.209V461.305L584.011 463H582.24V452.5ZM588.892 459.227V459.37C588.892 459.922 588.832 460.427 588.714 460.888C588.6 461.348 588.422 461.747 588.181 462.084C587.939 462.417 587.638 462.676 587.278 462.863C586.923 463.046 586.504 463.137 586.021 463.137C585.569 463.137 585.177 463.046 584.845 462.863C584.517 462.681 584.241 462.424 584.018 462.091C583.794 461.758 583.614 461.368 583.478 460.922C583.341 460.475 583.238 459.988 583.17 459.459V459.145C583.238 458.616 583.341 458.128 583.478 457.682C583.614 457.235 583.794 456.845 584.018 456.513C584.241 456.18 584.517 455.923 584.845 455.74C585.173 455.558 585.56 455.467 586.007 455.467C586.494 455.467 586.918 455.56 587.278 455.747C587.643 455.929 587.944 456.189 588.181 456.526C588.422 456.859 588.6 457.256 588.714 457.716C588.832 458.172 588.892 458.675 588.892 459.227ZM586.923 459.37V459.227C586.923 458.926 586.9 458.643 586.854 458.379C586.813 458.11 586.741 457.875 586.636 457.675C586.531 457.47 586.387 457.308 586.205 457.189C586.027 457.071 585.797 457.012 585.515 457.012C585.246 457.012 585.018 457.057 584.831 457.148C584.644 457.24 584.489 457.367 584.366 457.531C584.248 457.695 584.159 457.891 584.1 458.119C584.04 458.342 584.004 458.589 583.99 458.857V459.753C584.004 460.113 584.063 460.432 584.168 460.71C584.277 460.983 584.441 461.2 584.66 461.359C584.883 461.514 585.173 461.592 585.528 461.592C585.806 461.592 586.036 461.537 586.219 461.428C586.401 461.318 586.542 461.163 586.643 460.963C586.747 460.762 586.82 460.528 586.861 460.259C586.902 459.985 586.923 459.689 586.923 459.37ZM592.084 457.135V463H590.108V455.604H591.961L592.084 457.135ZM591.811 459.042H591.264C591.264 458.527 591.325 458.053 591.448 457.62C591.576 457.183 591.76 456.804 592.002 456.485C592.248 456.162 592.551 455.911 592.911 455.733C593.271 455.556 593.688 455.467 594.162 455.467C594.49 455.467 594.791 455.517 595.064 455.617C595.338 455.713 595.573 455.866 595.769 456.075C595.969 456.28 596.124 456.549 596.233 456.882C596.343 457.21 596.397 457.604 596.397 458.064V463H594.429V458.283C594.429 457.946 594.383 457.686 594.292 457.504C594.201 457.322 594.071 457.194 593.902 457.121C593.738 457.048 593.54 457.012 593.308 457.012C593.052 457.012 592.829 457.064 592.638 457.169C592.451 457.274 592.296 457.42 592.173 457.606C592.05 457.789 591.959 458.003 591.899 458.249C591.84 458.495 591.811 458.759 591.811 459.042ZM596.213 458.816L595.509 458.905C595.509 458.422 595.568 457.973 595.687 457.559C595.81 457.144 595.99 456.779 596.227 456.465C596.468 456.15 596.767 455.907 597.122 455.733C597.478 455.556 597.888 455.467 598.353 455.467C598.708 455.467 599.032 455.519 599.323 455.624C599.615 455.724 599.863 455.886 600.068 456.109C600.278 456.328 600.438 456.615 600.547 456.971C600.661 457.326 600.718 457.761 600.718 458.276V463H598.742V458.276C598.742 457.935 598.697 457.675 598.605 457.497C598.519 457.315 598.391 457.189 598.223 457.121C598.059 457.048 597.863 457.012 597.635 457.012C597.398 457.012 597.19 457.06 597.013 457.155C596.835 457.246 596.687 457.374 596.568 457.538C596.45 457.702 596.361 457.894 596.302 458.112C596.243 458.326 596.213 458.561 596.213 458.816ZM604.32 455.604V463H602.345V455.604H604.32ZM602.222 453.676C602.222 453.389 602.322 453.152 602.522 452.965C602.723 452.778 602.992 452.685 603.329 452.685C603.662 452.685 603.928 452.778 604.129 452.965C604.334 453.152 604.437 453.389 604.437 453.676C604.437 453.963 604.334 454.2 604.129 454.387C603.928 454.574 603.662 454.667 603.329 454.667C602.992 454.667 602.723 454.574 602.522 454.387C602.322 454.2 602.222 453.963 602.222 453.676ZM609.57 455.604V456.998H605.264V455.604H609.57ZM606.33 453.778H608.299V460.771C608.299 460.986 608.326 461.15 608.381 461.264C608.44 461.378 608.527 461.457 608.641 461.503C608.755 461.544 608.898 461.564 609.071 461.564C609.194 461.564 609.304 461.56 609.399 461.551C609.5 461.537 609.584 461.523 609.652 461.51L609.659 462.959C609.491 463.014 609.308 463.057 609.112 463.089C608.916 463.121 608.7 463.137 608.463 463.137C608.03 463.137 607.652 463.066 607.328 462.925C607.009 462.779 606.763 462.547 606.59 462.228C606.417 461.909 606.33 461.489 606.33 460.97V453.778Z" fill="white"/>
<path d="M412.732 72.4567C412.647 71.5973 412.281 70.9297 411.635 70.4538C410.989 69.978 410.112 69.7401 409.004 69.7401C408.251 69.7401 407.615 69.8466 407.097 70.0597C406.578 70.2656 406.18 70.5533 405.903 70.9226C405.634 71.2919 405.499 71.7109 405.499 72.1797C405.484 72.5703 405.566 72.9112 405.744 73.2024C405.928 73.4936 406.18 73.7457 406.5 73.9588C406.82 74.1648 407.189 74.3459 407.608 74.5021C408.027 74.6513 408.474 74.7791 408.95 74.8857L410.911 75.3544C411.862 75.5675 412.736 75.8516 413.531 76.2067C414.327 76.5618 415.016 76.9986 415.598 77.517C416.18 78.0355 416.631 78.6463 416.951 79.3494C417.278 80.0526 417.445 80.8587 417.452 81.7678C417.445 83.103 417.104 84.2607 416.429 85.2408C415.761 86.2138 414.795 86.9702 413.531 87.5099C412.274 88.0426 410.758 88.3089 408.982 88.3089C407.221 88.3089 405.687 88.0391 404.38 87.4993C403.08 86.9595 402.065 86.1605 401.333 85.1023C400.609 84.0369 400.229 82.7195 400.193 81.1499H404.657C404.707 81.8814 404.916 82.4922 405.286 82.9822C405.662 83.4652 406.163 83.831 406.788 84.0795C407.42 84.321 408.134 84.4418 408.929 84.4418C409.71 84.4418 410.388 84.3281 410.964 84.1009C411.546 83.8736 411.997 83.5575 412.317 83.1527C412.636 82.7479 412.796 82.2827 412.796 81.7571C412.796 81.267 412.651 80.8551 412.359 80.5213C412.075 80.1875 411.656 79.9034 411.102 79.669C410.555 79.4347 409.884 79.2216 409.089 79.0298L406.713 78.4332C404.874 77.9858 403.421 77.2862 402.356 76.3345C401.29 75.3828 400.761 74.1009 400.768 72.4886C400.761 71.1676 401.113 70.0135 401.823 69.0263C402.54 68.0391 403.524 67.2685 404.774 66.7145C406.024 66.1605 407.445 65.8835 409.036 65.8835C410.655 65.8835 412.068 66.1605 413.276 66.7145C414.49 67.2685 415.435 68.0391 416.109 69.0263C416.784 70.0135 417.132 71.157 417.153 72.4567H412.732ZM425.167 66.1818V88H420.555V66.1818H425.167ZM443.43 73.2344C443.281 72.7159 443.071 72.2578 442.801 71.8601C442.532 71.4553 442.201 71.1143 441.811 70.8374C441.427 70.5533 440.987 70.3366 440.49 70.1875C440 70.0384 439.456 69.9638 438.86 69.9638C437.745 69.9638 436.765 70.2408 435.919 70.7947C435.081 71.3487 434.428 72.1548 433.959 73.2131C433.49 74.2642 433.256 75.5497 433.256 77.0696C433.256 78.5895 433.487 79.8821 433.949 80.9474C434.41 82.0128 435.064 82.826 435.909 83.3871C436.754 83.9411 437.752 84.218 438.902 84.218C439.946 84.218 440.838 84.0334 441.576 83.6641C442.322 83.2876 442.89 82.7585 443.281 82.0767C443.679 81.3949 443.877 80.5888 443.877 79.6584L444.815 79.7969H439.19V76.3239H448.32V79.0724C448.32 80.9901 447.915 82.6378 447.105 84.0156C446.296 85.3864 445.181 86.4446 443.76 87.1903C442.34 87.929 440.713 88.2983 438.881 88.2983C436.836 88.2983 435.039 87.8473 433.49 86.9453C431.942 86.0362 430.735 84.7472 429.868 83.0781C429.009 81.402 428.579 79.4134 428.579 77.1122C428.579 75.3437 428.835 73.767 429.346 72.3821C429.865 70.9901 430.589 69.8111 431.52 68.8452C432.45 67.8793 433.533 67.1442 434.769 66.6399C436.005 66.1357 437.343 65.8835 438.785 65.8835C440.021 65.8835 441.172 66.0646 442.237 66.4268C443.302 66.782 444.247 67.2862 445.071 67.9396C445.902 68.593 446.58 69.3707 447.105 70.2727C447.631 71.1676 447.968 72.1548 448.118 73.2344H443.43ZM470.034 66.1818V88H466.05L456.558 74.2678H456.398V88H451.785V66.1818H455.833L465.251 79.9034H465.443V66.1818H470.034ZM494.265 66.1818H498.878V80.3509C498.878 81.9418 498.498 83.3338 497.738 84.527C496.986 85.7202 495.931 86.6506 494.574 87.3182C493.218 87.9787 491.638 88.3089 489.834 88.3089C488.023 88.3089 486.439 87.9787 485.082 87.3182C483.726 86.6506 482.671 85.7202 481.918 84.527C481.165 83.3338 480.789 81.9418 480.789 80.3509V66.1818H485.402V79.9567C485.402 80.7876 485.583 81.5263 485.945 82.1726C486.314 82.8189 486.833 83.3267 487.501 83.696C488.168 84.0653 488.946 84.25 489.834 84.25C490.729 84.25 491.506 84.0653 492.167 83.696C492.834 83.3267 493.349 82.8189 493.711 82.1726C494.081 81.5263 494.265 80.7876 494.265 79.9567V66.1818ZM502.674 88V66.1818H511.282C512.936 66.1818 514.346 66.4979 515.511 67.13C516.676 67.755 517.564 68.625 518.174 69.7401C518.792 70.848 519.101 72.1264 519.101 73.5753C519.101 75.0241 518.789 76.3026 518.164 77.4105C517.539 78.5185 516.633 79.3814 515.447 79.9993C514.268 80.6172 512.841 80.9261 511.164 80.9261H505.678V77.2294H510.419C511.306 77.2294 512.038 77.0767 512.613 76.7713C513.196 76.4588 513.629 76.0291 513.913 75.4822C514.204 74.9283 514.35 74.2926 514.35 73.5753C514.35 72.8509 514.204 72.2187 513.913 71.679C513.629 71.1321 513.196 70.7095 512.613 70.4112C512.031 70.1058 511.292 69.9531 510.397 69.9531H507.287V88H502.674Z" fill="#444444"/>
<g filter="url(#filter2_d_122_3)">
<rect x="400" y="109" width="380" height="44" rx="4" fill="white"/>
<rect x="400.5" y="109.5" width="379" height="43" rx="3.5" stroke="#E0E0E0"/>
</g>
<path d="M441.959 136V127.273H447.371V128.406H443.276V131.065H446.983V132.195H443.276V136H441.959ZM452.624 133.286V129.455H453.902V136H452.65V134.866H452.581C452.431 135.216 452.189 135.507 451.857 135.74C451.527 135.97 451.117 136.085 450.625 136.085C450.205 136.085 449.833 135.993 449.509 135.808C449.188 135.621 448.935 135.344 448.75 134.977C448.569 134.611 448.478 134.158 448.478 133.618V129.455H449.752V133.464C449.752 133.911 449.875 134.266 450.123 134.53C450.37 134.794 450.691 134.926 451.086 134.926C451.324 134.926 451.561 134.866 451.797 134.747C452.036 134.628 452.233 134.447 452.39 134.206C452.549 133.964 452.627 133.658 452.624 133.286ZM456.888 127.273V136H455.614V127.273H456.888ZM459.877 127.273V136H458.603V127.273H459.877ZM471.913 127.273V136H470.703L466.267 129.599H466.186V136H464.869V127.273H466.088L470.528 133.682H470.609V127.273H471.913ZM475.636 136.145C475.222 136.145 474.847 136.068 474.511 135.915C474.176 135.759 473.911 135.533 473.714 135.237C473.521 134.942 473.425 134.58 473.425 134.151C473.425 133.781 473.496 133.477 473.638 133.239C473.78 133 473.972 132.811 474.213 132.672C474.455 132.533 474.724 132.428 475.023 132.357C475.321 132.286 475.625 132.232 475.935 132.195C476.327 132.149 476.645 132.112 476.889 132.084C477.134 132.053 477.311 132.003 477.422 131.935C477.533 131.866 477.588 131.756 477.588 131.602V131.572C477.588 131.2 477.483 130.912 477.273 130.707C477.065 130.503 476.756 130.401 476.344 130.401C475.915 130.401 475.577 130.496 475.33 130.686C475.085 130.874 474.916 131.082 474.822 131.312L473.625 131.04C473.767 130.642 473.974 130.321 474.247 130.077C474.523 129.83 474.839 129.651 475.197 129.54C475.555 129.426 475.932 129.369 476.327 129.369C476.588 129.369 476.865 129.401 477.158 129.463C477.453 129.523 477.729 129.634 477.984 129.795C478.243 129.957 478.455 130.189 478.619 130.49C478.784 130.788 478.866 131.176 478.866 131.653V136H477.622V135.105H477.571C477.489 135.27 477.365 135.432 477.2 135.591C477.036 135.75 476.824 135.882 476.565 135.987C476.307 136.092 475.997 136.145 475.636 136.145ZM475.913 135.122C476.266 135.122 476.567 135.053 476.817 134.913C477.07 134.774 477.261 134.592 477.392 134.368C477.526 134.141 477.592 133.898 477.592 133.639V132.795C477.547 132.841 477.459 132.884 477.328 132.923C477.2 132.96 477.054 132.993 476.889 133.021C476.724 133.047 476.564 133.071 476.408 133.094C476.251 133.114 476.121 133.131 476.016 133.145C475.768 133.176 475.543 133.229 475.338 133.303C475.136 133.376 474.974 133.483 474.852 133.622C474.733 133.759 474.673 133.94 474.673 134.168C474.673 134.483 474.79 134.722 475.023 134.884C475.256 135.043 475.553 135.122 475.913 135.122ZM480.564 136V129.455H481.787V130.52H481.868C482.004 130.159 482.227 129.878 482.537 129.676C482.846 129.472 483.217 129.369 483.649 129.369C484.086 129.369 484.453 129.472 484.748 129.676C485.047 129.881 485.267 130.162 485.409 130.52H485.477C485.633 130.17 485.882 129.892 486.223 129.685C486.564 129.474 486.97 129.369 487.441 129.369C488.035 129.369 488.52 129.555 488.895 129.928C489.272 130.3 489.461 130.861 489.461 131.611V136H488.187V131.73C488.187 131.287 488.066 130.966 487.825 130.767C487.583 130.568 487.295 130.469 486.96 130.469C486.545 130.469 486.223 130.597 485.993 130.852C485.762 131.105 485.647 131.43 485.647 131.828V136H484.377V131.649C484.377 131.294 484.267 131.009 484.045 130.793C483.824 130.577 483.535 130.469 483.18 130.469C482.939 130.469 482.716 130.533 482.511 130.661C482.309 130.786 482.146 130.96 482.021 131.185C481.899 131.409 481.838 131.669 481.838 131.964V136H480.564ZM493.99 136.132C493.345 136.132 492.79 135.994 492.324 135.719C491.861 135.44 491.503 135.05 491.25 134.547C491 134.041 490.875 133.449 490.875 132.77C490.875 132.099 491 131.509 491.25 130.997C491.503 130.486 491.855 130.087 492.307 129.8C492.761 129.513 493.293 129.369 493.901 129.369C494.27 129.369 494.628 129.43 494.974 129.553C495.321 129.675 495.632 129.866 495.908 130.128C496.183 130.389 496.401 130.729 496.56 131.146C496.719 131.561 496.798 132.065 496.798 132.659V133.111H491.595V132.156H495.55C495.55 131.821 495.482 131.524 495.345 131.266C495.209 131.004 495.017 130.798 494.77 130.648C494.526 130.497 494.239 130.422 493.909 130.422C493.551 130.422 493.239 130.51 492.972 130.686C492.707 130.859 492.503 131.087 492.358 131.368C492.216 131.646 492.145 131.949 492.145 132.276V133.021C492.145 133.459 492.222 133.831 492.375 134.138C492.531 134.445 492.749 134.679 493.027 134.841C493.305 135 493.631 135.08 494.003 135.08C494.244 135.08 494.464 135.045 494.663 134.977C494.862 134.906 495.034 134.801 495.179 134.662C495.324 134.523 495.435 134.351 495.511 134.146L496.717 134.364C496.621 134.719 496.447 135.03 496.197 135.297C495.95 135.561 495.639 135.767 495.264 135.915C494.892 136.06 494.467 136.132 493.99 136.132Z" fill="black"/>
<path d="M430.294 135.506C429.842 134.439 429.187 133.47 428.365 132.653C427.545 131.834 426.573 131.18 425.504 130.729C425.495 130.724 425.485 130.722 425.476 130.717C426.967 129.643 427.936 127.894 427.936 125.92C427.936 122.649 425.279 120 422 120C418.721 120 416.064 122.649 416.064 125.92C416.064 127.894 417.033 129.643 418.524 130.72C418.515 130.724 418.505 130.727 418.496 130.732C417.423 131.183 416.461 131.83 415.635 132.656C414.814 133.473 414.159 134.442 413.706 135.508C413.262 136.552 413.022 137.671 413 138.804C412.999 138.83 413.004 138.855 413.013 138.879C413.023 138.903 413.037 138.924 413.054 138.942C413.072 138.961 413.094 138.975 413.117 138.985C413.141 138.995 413.166 139 413.192 139H414.628C414.733 139 414.817 138.916 414.819 138.814C414.867 136.971 415.609 135.245 416.921 133.937C418.278 132.584 420.08 131.839 422 131.839C423.92 131.839 425.722 132.584 427.079 133.937C428.391 135.245 429.133 136.971 429.181 138.814C429.183 138.919 429.267 139 429.372 139H430.808C430.834 139 430.859 138.995 430.883 138.985C430.906 138.975 430.928 138.961 430.946 138.942C430.963 138.924 430.977 138.903 430.987 138.879C430.996 138.855 431.001 138.83 431 138.804C430.976 137.663 430.739 136.553 430.294 135.506V135.506ZM422 130.025C420.901 130.025 419.867 129.598 419.089 128.822C418.311 128.046 417.883 127.015 417.883 125.92C417.883 124.824 418.311 123.793 419.089 123.017C419.867 122.241 420.901 121.814 422 121.814C423.099 121.814 424.133 122.241 424.911 123.017C425.689 123.793 426.117 124.824 426.117 125.92C426.117 127.015 425.689 128.046 424.911 128.822C424.133 129.598 423.099 130.025 422 130.025Z" fill="black"/>
<g filter="url(#filter3_d_122_3)">
<rect x="400" y="219" width="380" height="44" rx="4" fill="white"/>
<rect x="400.5" y="219.5" width="379" height="43" rx="3.5" stroke="#E0E0E0"/>
</g>
<path d="M441.959 246V237.273H447.43V238.406H443.276V241.065H447.145V242.195H443.276V244.866H447.482V246H441.959ZM449.087 246V239.455H450.31V240.52H450.391C450.527 240.159 450.75 239.878 451.06 239.676C451.37 239.472 451.74 239.369 452.172 239.369C452.61 239.369 452.976 239.472 453.272 239.676C453.57 239.881 453.79 240.162 453.932 240.52H454C454.157 240.17 454.405 239.892 454.746 239.685C455.087 239.474 455.493 239.369 455.965 239.369C456.559 239.369 457.043 239.555 457.418 239.928C457.796 240.3 457.985 240.861 457.985 241.611V246H456.711V241.73C456.711 241.287 456.59 240.966 456.348 240.767C456.107 240.568 455.819 240.469 455.483 240.469C455.069 240.469 454.746 240.597 454.516 240.852C454.286 241.105 454.171 241.43 454.171 241.828V246H452.901V241.649C452.901 241.294 452.79 241.009 452.569 240.793C452.347 240.577 452.059 240.469 451.703 240.469C451.462 240.469 451.239 240.533 451.034 240.661C450.833 240.786 450.669 240.96 450.544 241.185C450.422 241.409 450.361 241.669 450.361 241.964V246H449.087ZM461.597 246.145C461.183 246.145 460.808 246.068 460.472 245.915C460.137 245.759 459.871 245.533 459.675 245.237C459.482 244.942 459.386 244.58 459.386 244.151C459.386 243.781 459.457 243.477 459.599 243.239C459.741 243 459.933 242.811 460.174 242.672C460.415 242.533 460.685 242.428 460.984 242.357C461.282 242.286 461.586 242.232 461.896 242.195C462.288 242.149 462.606 242.112 462.85 242.084C463.094 242.053 463.272 242.003 463.383 241.935C463.494 241.866 463.549 241.756 463.549 241.602V241.572C463.549 241.2 463.444 240.912 463.234 240.707C463.026 240.503 462.717 240.401 462.305 240.401C461.876 240.401 461.538 240.496 461.29 240.686C461.046 240.874 460.877 241.082 460.783 241.312L459.586 241.04C459.728 240.642 459.935 240.321 460.208 240.077C460.484 239.83 460.8 239.651 461.158 239.54C461.516 239.426 461.893 239.369 462.288 239.369C462.549 239.369 462.826 239.401 463.119 239.463C463.414 239.523 463.69 239.634 463.945 239.795C464.204 239.957 464.415 240.189 464.58 240.49C464.745 240.788 464.827 241.176 464.827 241.653V246H463.583V245.105H463.532C463.45 245.27 463.326 245.432 463.161 245.591C462.996 245.75 462.785 245.882 462.526 245.987C462.268 246.092 461.958 246.145 461.597 246.145ZM461.874 245.122C462.227 245.122 462.528 245.053 462.778 244.913C463.031 244.774 463.222 244.592 463.353 244.368C463.487 244.141 463.553 243.898 463.553 243.639V242.795C463.508 242.841 463.42 242.884 463.289 242.923C463.161 242.96 463.015 242.993 462.85 243.021C462.685 243.047 462.525 243.071 462.369 243.094C462.212 243.114 462.082 243.131 461.977 243.145C461.729 243.176 461.504 243.229 461.299 243.303C461.097 243.376 460.935 243.483 460.813 243.622C460.694 243.759 460.634 243.94 460.634 244.168C460.634 244.483 460.751 244.722 460.984 244.884C461.217 245.043 461.513 245.122 461.874 245.122ZM466.525 246V239.455H467.799V246H466.525ZM467.168 238.445C466.946 238.445 466.756 238.371 466.597 238.223C466.441 238.072 466.363 237.893 466.363 237.686C466.363 237.476 466.441 237.297 466.597 237.149C466.756 236.999 466.946 236.923 467.168 236.923C467.39 236.923 467.578 236.999 467.735 237.149C467.894 237.297 467.973 237.476 467.973 237.686C467.973 237.893 467.894 238.072 467.735 238.223C467.578 238.371 467.39 238.445 467.168 238.445ZM470.787 237.273V246H469.513V237.273H470.787ZM476.516 246H475.119L478.259 237.273H479.781L482.921 246H481.523L479.056 238.858H478.988L476.516 246ZM476.751 242.582H481.285V243.69H476.751V242.582ZM486.424 246.128C485.896 246.128 485.424 245.993 485.009 245.723C484.597 245.45 484.273 245.062 484.038 244.56C483.805 244.054 483.688 243.447 483.688 242.74C483.688 242.033 483.806 241.428 484.042 240.925C484.281 240.422 484.607 240.037 485.022 239.77C485.437 239.503 485.907 239.369 486.433 239.369C486.839 239.369 487.165 239.438 487.413 239.574C487.663 239.707 487.856 239.864 487.992 240.043C488.131 240.222 488.239 240.379 488.316 240.516H488.393V237.273H489.667V246H488.423V244.982H488.316C488.239 245.121 488.129 245.28 487.984 245.459C487.842 245.638 487.646 245.794 487.396 245.928C487.146 246.061 486.822 246.128 486.424 246.128ZM486.705 245.041C487.072 245.041 487.381 244.945 487.634 244.751C487.89 244.555 488.083 244.284 488.214 243.938C488.347 243.591 488.414 243.187 488.414 242.727C488.414 242.273 488.349 241.875 488.218 241.534C488.087 241.193 487.896 240.928 487.643 240.737C487.39 240.547 487.077 240.452 486.705 240.452C486.322 240.452 486.002 240.551 485.746 240.75C485.491 240.949 485.298 241.22 485.167 241.564C485.039 241.908 484.975 242.295 484.975 242.727C484.975 243.165 485.04 243.558 485.171 243.908C485.302 244.257 485.495 244.534 485.751 244.739C486.009 244.94 486.327 245.041 486.705 245.041ZM493.936 246.128C493.407 246.128 492.936 245.993 492.521 245.723C492.109 245.45 491.785 245.062 491.549 244.56C491.316 244.054 491.2 243.447 491.2 242.74C491.2 242.033 491.318 241.428 491.554 240.925C491.792 240.422 492.119 240.037 492.534 239.77C492.949 239.503 493.419 239.369 493.944 239.369C494.35 239.369 494.677 239.438 494.924 239.574C495.174 239.707 495.368 239.864 495.504 240.043C495.643 240.222 495.751 240.379 495.828 240.516H495.904V237.273H497.179V246H495.934V244.982H495.828C495.751 245.121 495.64 245.28 495.495 245.459C495.353 245.638 495.157 245.794 494.907 245.928C494.657 246.061 494.333 246.128 493.936 246.128ZM494.217 245.041C494.583 245.041 494.893 244.945 495.146 244.751C495.402 244.555 495.595 244.284 495.725 243.938C495.859 243.591 495.926 243.187 495.926 242.727C495.926 242.273 495.86 241.875 495.73 241.534C495.599 241.193 495.407 240.928 495.154 240.737C494.902 240.547 494.589 240.452 494.217 240.452C493.833 240.452 493.514 240.551 493.258 240.75C493.002 240.949 492.809 241.22 492.679 241.564C492.551 241.908 492.487 242.295 492.487 242.727C492.487 243.165 492.552 243.558 492.683 243.908C492.814 244.257 493.007 244.534 493.262 244.739C493.521 244.94 493.839 245.041 494.217 245.041ZM498.997 246V239.455H500.229V240.494H500.297C500.416 240.142 500.626 239.865 500.928 239.663C501.232 239.459 501.575 239.357 501.959 239.357C502.038 239.357 502.132 239.359 502.24 239.365C502.351 239.371 502.438 239.378 502.5 239.386V240.605C502.449 240.591 502.358 240.575 502.227 240.558C502.097 240.538 501.966 240.528 501.835 240.528C501.534 240.528 501.266 240.592 501.03 240.72C500.797 240.845 500.612 241.02 500.476 241.244C500.339 241.466 500.271 241.719 500.271 242.003V246H498.997ZM506.189 246.132C505.544 246.132 504.989 245.994 504.523 245.719C504.06 245.44 503.702 245.05 503.449 244.547C503.199 244.041 503.074 243.449 503.074 242.77C503.074 242.099 503.199 241.509 503.449 240.997C503.702 240.486 504.054 240.087 504.506 239.8C504.961 239.513 505.492 239.369 506.1 239.369C506.469 239.369 506.827 239.43 507.174 239.553C507.52 239.675 507.831 239.866 508.107 240.128C508.382 240.389 508.6 240.729 508.759 241.146C508.918 241.561 508.998 242.065 508.998 242.659V243.111H503.794V242.156H507.749C507.749 241.821 507.681 241.524 507.544 241.266C507.408 241.004 507.216 240.798 506.969 240.648C506.725 240.497 506.438 240.422 506.108 240.422C505.75 240.422 505.438 240.51 505.171 240.686C504.907 240.859 504.702 241.087 504.557 241.368C504.415 241.646 504.344 241.949 504.344 242.276V243.021C504.344 243.459 504.421 243.831 504.574 244.138C504.73 244.445 504.948 244.679 505.226 244.841C505.505 245 505.83 245.08 506.202 245.08C506.444 245.08 506.664 245.045 506.863 244.977C507.061 244.906 507.233 244.801 507.378 244.662C507.523 244.523 507.634 244.351 507.711 244.146L508.917 244.364C508.82 244.719 508.647 245.03 508.397 245.297C508.15 245.561 507.838 245.767 507.463 245.915C507.091 246.06 506.667 246.132 506.189 246.132ZM515.316 241.053L514.161 241.257C514.113 241.109 514.036 240.969 513.931 240.835C513.829 240.702 513.69 240.592 513.513 240.507C513.337 240.422 513.117 240.379 512.853 240.379C512.492 240.379 512.191 240.46 511.95 240.622C511.708 240.781 511.587 240.987 511.587 241.24C511.587 241.459 511.668 241.635 511.83 241.768C511.992 241.902 512.254 242.011 512.614 242.097L513.654 242.335C514.256 242.474 514.705 242.689 515.001 242.979C515.296 243.268 515.444 243.645 515.444 244.108C515.444 244.5 515.33 244.849 515.103 245.156C514.879 245.46 514.565 245.699 514.161 245.872C513.761 246.045 513.296 246.132 512.768 246.132C512.035 246.132 511.437 245.976 510.974 245.663C510.511 245.348 510.227 244.901 510.121 244.321L511.353 244.134C511.43 244.455 511.587 244.697 511.826 244.862C512.065 245.024 512.376 245.105 512.759 245.105C513.177 245.105 513.511 245.018 513.761 244.845C514.011 244.669 514.136 244.455 514.136 244.202C514.136 243.997 514.059 243.825 513.906 243.686C513.755 243.547 513.523 243.442 513.211 243.371L512.103 243.128C511.492 242.989 511.04 242.767 510.748 242.463C510.458 242.159 510.313 241.774 510.313 241.308C510.313 240.922 510.421 240.584 510.637 240.294C510.853 240.004 511.151 239.778 511.532 239.616C511.913 239.452 512.349 239.369 512.84 239.369C513.548 239.369 514.104 239.523 514.511 239.83C514.917 240.134 515.185 240.541 515.316 241.053ZM521.75 241.053L520.595 241.257C520.547 241.109 520.47 240.969 520.365 240.835C520.262 240.702 520.123 240.592 519.947 240.507C519.771 240.422 519.551 240.379 519.287 240.379C518.926 240.379 518.625 240.46 518.383 240.622C518.142 240.781 518.021 240.987 518.021 241.24C518.021 241.459 518.102 241.635 518.264 241.768C518.426 241.902 518.687 242.011 519.048 242.097L520.088 242.335C520.69 242.474 521.139 242.689 521.434 242.979C521.73 243.268 521.877 243.645 521.877 244.108C521.877 244.5 521.764 244.849 521.537 245.156C521.312 245.46 520.998 245.699 520.595 245.872C520.194 246.045 519.73 246.132 519.201 246.132C518.468 246.132 517.87 245.976 517.407 245.663C516.944 245.348 516.66 244.901 516.555 244.321L517.787 244.134C517.863 244.455 518.021 244.697 518.26 244.862C518.498 245.024 518.809 245.105 519.193 245.105C519.61 245.105 519.944 245.018 520.194 244.845C520.444 244.669 520.569 244.455 520.569 244.202C520.569 243.997 520.493 243.825 520.339 243.686C520.189 243.547 519.957 243.442 519.645 243.371L518.537 243.128C517.926 242.989 517.474 242.767 517.181 242.463C516.892 242.159 516.747 241.774 516.747 241.308C516.747 240.922 516.855 240.584 517.071 240.294C517.287 240.004 517.585 239.778 517.966 239.616C518.346 239.452 518.782 239.369 519.274 239.369C519.981 239.369 520.538 239.523 520.944 239.83C521.35 240.134 521.619 240.541 521.75 241.053Z" fill="black"/>
<path d="M429.778 234.333H414.222C413.928 234.333 413.645 234.45 413.437 234.659C413.228 234.867 413.111 235.15 413.111 235.444V246.556C413.111 246.85 413.228 247.133 413.437 247.341C413.645 247.55 413.928 247.667 414.222 247.667H429.778C430.073 247.667 430.355 247.55 430.564 247.341C430.772 247.133 430.889 246.85 430.889 246.556V235.444C430.889 235.15 430.772 234.867 430.564 234.659C430.355 234.45 430.073 234.333 429.778 234.333V234.333ZM428.922 246.556H415.145L419.034 242.533L418.234 241.761L414.222 245.911V236.289L421.128 243.161C421.336 243.368 421.618 243.484 421.911 243.484C422.205 243.484 422.486 243.368 422.695 243.161L429.778 236.117V245.839L425.689 241.75L424.906 242.533L428.922 246.556ZM414.95 235.444H428.878L421.911 242.372L414.95 235.444Z" fill="black"/>
<g filter="url(#filter4_d_122_3)">
<rect x="400" y="274" width="380" height="44" rx="4" fill="white"/>
<rect x="400.5" y="274.5" width="379" height="43" rx="3.5" stroke="#E0E0E0"/>
</g>
<path d="M441.959 300V291.273H445.07C445.749 291.273 446.311 291.396 446.757 291.643C447.203 291.891 447.537 292.229 447.759 292.658C447.98 293.084 448.091 293.564 448.091 294.098C448.091 294.635 447.979 295.118 447.754 295.547C447.533 295.973 447.197 296.311 446.749 296.561C446.303 296.808 445.741 296.932 445.065 296.932H442.926V295.815H444.946C445.375 295.815 445.723 295.741 445.99 295.594C446.257 295.443 446.453 295.239 446.578 294.98C446.703 294.722 446.766 294.428 446.766 294.098C446.766 293.768 446.703 293.476 446.578 293.22C446.453 292.964 446.256 292.764 445.986 292.619C445.719 292.474 445.366 292.402 444.929 292.402H443.276V300H441.959ZM451.379 300.145C450.964 300.145 450.589 300.068 450.254 299.915C449.918 299.759 449.653 299.533 449.457 299.237C449.263 298.942 449.167 298.58 449.167 298.151C449.167 297.781 449.238 297.477 449.38 297.239C449.522 297 449.714 296.811 449.955 296.672C450.197 296.533 450.467 296.428 450.765 296.357C451.063 296.286 451.367 296.232 451.677 296.195C452.069 296.149 452.387 296.112 452.631 296.084C452.876 296.053 453.053 296.003 453.164 295.935C453.275 295.866 453.33 295.756 453.33 295.602V295.572C453.33 295.2 453.225 294.912 453.015 294.707C452.808 294.503 452.498 294.401 452.086 294.401C451.657 294.401 451.319 294.496 451.072 294.686C450.827 294.874 450.658 295.082 450.565 295.312L449.367 295.04C449.509 294.642 449.717 294.321 449.989 294.077C450.265 293.83 450.582 293.651 450.94 293.54C451.298 293.426 451.674 293.369 452.069 293.369C452.33 293.369 452.607 293.401 452.9 293.463C453.195 293.523 453.471 293.634 453.727 293.795C453.985 293.957 454.197 294.189 454.362 294.49C454.526 294.788 454.609 295.176 454.609 295.653V300H453.364V299.105H453.313C453.231 299.27 453.107 299.432 452.942 299.591C452.778 299.75 452.566 299.882 452.308 299.987C452.049 300.092 451.739 300.145 451.379 300.145ZM451.656 299.122C452.008 299.122 452.309 299.053 452.559 298.913C452.812 298.774 453.004 298.592 453.134 298.368C453.268 298.141 453.335 297.898 453.335 297.639V296.795C453.289 296.841 453.201 296.884 453.07 296.923C452.942 296.96 452.796 296.993 452.631 297.021C452.467 297.047 452.306 297.071 452.15 297.094C451.994 297.114 451.863 297.131 451.758 297.145C451.511 297.176 451.285 297.229 451.08 297.303C450.879 297.376 450.717 297.483 450.594 297.622C450.475 297.759 450.415 297.94 450.415 298.168C450.415 298.483 450.532 298.722 450.765 298.884C450.998 299.043 451.295 299.122 451.656 299.122ZM461.211 295.053L460.056 295.257C460.007 295.109 459.931 294.969 459.826 294.835C459.723 294.702 459.584 294.592 459.408 294.507C459.232 294.422 459.012 294.379 458.748 294.379C458.387 294.379 458.086 294.46 457.844 294.622C457.603 294.781 457.482 294.987 457.482 295.24C457.482 295.459 457.563 295.635 457.725 295.768C457.887 295.902 458.148 296.011 458.509 296.097L459.549 296.335C460.151 296.474 460.6 296.689 460.895 296.979C461.191 297.268 461.338 297.645 461.338 298.108C461.338 298.5 461.225 298.849 460.998 299.156C460.773 299.46 460.459 299.699 460.056 299.872C459.655 300.045 459.191 300.132 458.662 300.132C457.929 300.132 457.331 299.976 456.868 299.663C456.405 299.348 456.121 298.901 456.016 298.321L457.248 298.134C457.324 298.455 457.482 298.697 457.721 298.862C457.959 299.024 458.27 299.105 458.654 299.105C459.071 299.105 459.405 299.018 459.655 298.845C459.905 298.669 460.03 298.455 460.03 298.202C460.03 297.997 459.953 297.825 459.8 297.686C459.65 297.547 459.418 297.442 459.105 297.371L457.998 297.128C457.387 296.989 456.935 296.767 456.642 296.463C456.353 296.159 456.208 295.774 456.208 295.308C456.208 294.922 456.316 294.584 456.532 294.294C456.748 294.004 457.046 293.778 457.426 293.616C457.807 293.452 458.243 293.369 458.735 293.369C459.442 293.369 459.999 293.523 460.405 293.83C460.811 294.134 461.08 294.541 461.211 295.053ZM467.644 295.053L466.489 295.257C466.441 295.109 466.364 294.969 466.259 294.835C466.157 294.702 466.018 294.592 465.842 294.507C465.665 294.422 465.445 294.379 465.181 294.379C464.82 294.379 464.519 294.46 464.278 294.622C464.036 294.781 463.915 294.987 463.915 295.24C463.915 295.459 463.996 295.635 464.158 295.768C464.32 295.902 464.582 296.011 464.942 296.097L465.982 296.335C466.585 296.474 467.033 296.689 467.329 296.979C467.624 297.268 467.772 297.645 467.772 298.108C467.772 298.5 467.658 298.849 467.431 299.156C467.207 299.46 466.893 299.699 466.489 299.872C466.089 300.045 465.624 300.132 465.096 300.132C464.363 300.132 463.765 299.976 463.302 299.663C462.839 299.348 462.555 298.901 462.45 298.321L463.681 298.134C463.758 298.455 463.915 298.697 464.154 298.862C464.393 299.024 464.704 299.105 465.087 299.105C465.505 299.105 465.839 299.018 466.089 298.845C466.339 298.669 466.464 298.455 466.464 298.202C466.464 297.997 466.387 297.825 466.234 297.686C466.083 297.547 465.852 297.442 465.539 297.371L464.431 297.128C463.82 296.989 463.369 296.767 463.076 296.463C462.786 296.159 462.641 295.774 462.641 295.308C462.641 294.922 462.749 294.584 462.965 294.294C463.181 294.004 463.479 293.778 463.86 293.616C464.241 293.452 464.677 293.369 465.168 293.369C465.876 293.369 466.433 293.523 466.839 293.83C467.245 294.134 467.513 294.541 467.644 295.053ZM470.592 300L468.666 293.455H469.983L471.265 298.261H471.329L472.616 293.455H473.933L475.211 298.24H475.275L476.549 293.455H477.866L475.944 300H474.645L473.315 295.274H473.217L471.887 300H470.592ZM481.633 300.132C481.02 300.132 480.484 299.991 480.027 299.71C479.569 299.429 479.214 299.036 478.961 298.53C478.708 298.024 478.582 297.433 478.582 296.757C478.582 296.078 478.708 295.484 478.961 294.976C479.214 294.467 479.569 294.072 480.027 293.791C480.484 293.51 481.02 293.369 481.633 293.369C482.247 293.369 482.782 293.51 483.24 293.791C483.697 294.072 484.052 294.467 484.305 294.976C484.558 295.484 484.684 296.078 484.684 296.757C484.684 297.433 484.558 298.024 484.305 298.53C484.052 299.036 483.697 299.429 483.24 299.71C482.782 299.991 482.247 300.132 481.633 300.132ZM481.637 299.062C482.035 299.062 482.365 298.957 482.626 298.747C482.887 298.537 483.081 298.257 483.206 297.908C483.333 297.558 483.397 297.173 483.397 296.753C483.397 296.335 483.333 295.952 483.206 295.602C483.081 295.25 482.887 294.967 482.626 294.754C482.365 294.541 482.035 294.435 481.637 294.435C481.237 294.435 480.904 294.541 480.64 294.754C480.379 294.967 480.184 295.25 480.056 295.602C479.931 295.952 479.869 296.335 479.869 296.753C479.869 297.173 479.931 297.558 480.056 297.908C480.184 298.257 480.379 298.537 480.64 298.747C480.904 298.957 481.237 299.062 481.637 299.062ZM486.107 300V293.455H487.338V294.494H487.406C487.526 294.142 487.736 293.865 488.037 293.663C488.341 293.459 488.685 293.357 489.068 293.357C489.148 293.357 489.241 293.359 489.349 293.365C489.46 293.371 489.547 293.378 489.609 293.386V294.605C489.558 294.591 489.467 294.575 489.337 294.558C489.206 294.538 489.075 294.528 488.945 294.528C488.643 294.528 488.375 294.592 488.139 294.72C487.906 294.845 487.722 295.02 487.585 295.244C487.449 295.466 487.381 295.719 487.381 296.003V300H486.107ZM492.928 300.128C492.4 300.128 491.928 299.993 491.513 299.723C491.101 299.45 490.777 299.062 490.542 298.56C490.309 298.054 490.192 297.447 490.192 296.74C490.192 296.033 490.31 295.428 490.546 294.925C490.784 294.422 491.111 294.037 491.526 293.77C491.941 293.503 492.411 293.369 492.936 293.369C493.343 293.369 493.669 293.438 493.917 293.574C494.167 293.707 494.36 293.864 494.496 294.043C494.635 294.222 494.743 294.379 494.82 294.516H494.897V291.273H496.171V300H494.926V298.982H494.82C494.743 299.121 494.632 299.28 494.488 299.459C494.346 299.638 494.15 299.794 493.9 299.928C493.65 300.061 493.326 300.128 492.928 300.128ZM493.209 299.041C493.576 299.041 493.885 298.945 494.138 298.751C494.394 298.555 494.587 298.284 494.718 297.938C494.851 297.591 494.918 297.187 494.918 296.727C494.918 296.273 494.853 295.875 494.722 295.534C494.591 295.193 494.4 294.928 494.147 294.737C493.894 294.547 493.581 294.452 493.209 294.452C492.826 294.452 492.506 294.551 492.25 294.75C491.995 294.949 491.801 295.22 491.671 295.564C491.543 295.908 491.479 296.295 491.479 296.727C491.479 297.165 491.544 297.558 491.675 297.908C491.806 298.257 491.999 298.534 492.255 298.739C492.513 298.94 492.831 299.041 493.209 299.041Z" fill="black"/>
<path d="M427 291.667H428.667C428.888 291.667 429.1 291.754 429.256 291.911C429.412 292.067 429.5 292.279 429.5 292.5V302.5C429.5 302.721 429.412 302.933 429.256 303.089C429.1 303.246 428.888 303.333 428.667 303.333H415.333C415.112 303.333 414.9 303.246 414.744 303.089C414.588 302.933 414.5 302.721 414.5 302.5V292.5C414.5 292.279 414.588 292.067 414.744 291.911C414.9 291.754 415.112 291.667 415.333 291.667H417V290.833C417 289.507 417.527 288.235 418.464 287.298C419.402 286.36 420.674 285.833 422 285.833C423.326 285.833 424.598 286.36 425.536 287.298C426.473 288.235 427 289.507 427 290.833V291.667ZM416.167 293.333V301.667H427.833V293.333H416.167ZM421.167 296.667H422.833V298.333H421.167V296.667ZM417.833 296.667H419.5V298.333H417.833V296.667ZM424.5 296.667H426.167V298.333H424.5V296.667ZM425.333 291.667V290.833C425.333 289.949 424.982 289.101 424.357 288.476C423.732 287.851 422.884 287.5 422 287.5C421.116 287.5 420.268 287.851 419.643 288.476C419.018 289.101 418.667 289.949 418.667 290.833V291.667H425.333Z" fill="#444444"/>
<path d="M763.008 296.304C761.604 293.708 759.142 292.137 756.417 292.137C753.692 292.137 751.225 293.708 749.833 296.304L749.717 296.5L749.825 296.7C751.229 299.296 753.692 300.867 756.417 300.867C759.142 300.867 761.608 299.317 763.008 296.7L763.117 296.5L763.008 296.304ZM756.417 300.012C754.071 300.012 751.917 298.704 750.667 296.5C751.917 294.296 754.071 292.987 756.417 292.987C758.763 292.987 760.892 294.3 762.163 296.5C760.892 298.704 758.758 300.012 756.417 300.012V300.012Z" fill="#444444"/>
<path d="M756.538 293.654C755.973 293.658 755.422 293.83 754.954 294.147C754.487 294.464 754.123 294.913 753.911 295.436C753.698 295.959 753.645 296.534 753.759 297.087C753.872 297.641 754.147 298.148 754.549 298.545C754.951 298.942 755.461 299.212 756.016 299.319C756.571 299.426 757.145 299.366 757.666 299.148C758.187 298.929 758.631 298.56 758.943 298.089C759.254 297.618 759.419 297.065 759.417 296.5C759.415 296.124 759.339 295.752 759.194 295.405C759.048 295.058 758.835 294.744 758.568 294.48C758.3 294.215 757.983 294.006 757.635 293.865C757.287 293.723 756.914 293.651 756.538 293.654V293.654ZM756.538 298.538C756.139 298.533 755.75 298.411 755.42 298.187C755.09 297.963 754.833 297.646 754.683 297.276C754.532 296.906 754.495 296.501 754.574 296.109C754.654 295.718 754.847 295.359 755.13 295.078C755.412 294.796 755.772 294.604 756.163 294.527C756.555 294.449 756.961 294.488 757.33 294.64C757.699 294.792 758.014 295.05 758.238 295.381C758.461 295.712 758.581 296.101 758.584 296.5C758.585 296.769 758.532 297.035 758.43 297.283C758.327 297.531 758.177 297.757 757.986 297.946C757.796 298.136 757.57 298.286 757.321 298.387C757.073 298.489 756.806 298.54 756.538 298.538V298.538Z" fill="#444444"/>
<g filter="url(#filter5_d_122_3)">
<rect x="400" y="329" width="380" height="44" rx="4" fill="white"/>
<rect x="400.5" y="329.5" width="379" height="43" rx="3.5" stroke="#E0E0E0"/>
</g>
<path d="M449.207 349.111H447.878C447.827 348.827 447.732 348.577 447.592 348.361C447.453 348.145 447.283 347.962 447.081 347.811C446.879 347.661 446.653 347.547 446.403 347.47C446.156 347.393 445.893 347.355 445.615 347.355C445.112 347.355 444.662 347.482 444.264 347.734C443.869 347.987 443.557 348.358 443.327 348.847C443.099 349.335 442.986 349.932 442.986 350.636C442.986 351.347 443.099 351.946 443.327 352.435C443.557 352.923 443.871 353.293 444.268 353.543C444.666 353.793 445.114 353.918 445.611 353.918C445.886 353.918 446.148 353.881 446.395 353.807C446.645 353.73 446.871 353.618 447.072 353.47C447.274 353.322 447.445 353.142 447.584 352.929C447.726 352.713 447.824 352.466 447.878 352.188L449.207 352.192C449.136 352.621 448.999 353.016 448.794 353.376C448.592 353.734 448.332 354.044 448.014 354.305C447.699 354.564 447.338 354.764 446.932 354.906C446.526 355.048 446.082 355.119 445.602 355.119C444.847 355.119 444.173 354.94 443.582 354.582C442.991 354.222 442.526 353.706 442.185 353.036C441.847 352.365 441.678 351.565 441.678 350.636C441.678 349.705 441.848 348.905 442.189 348.237C442.53 347.567 442.996 347.053 443.587 346.695C444.178 346.334 444.849 346.153 445.602 346.153C446.065 346.153 446.497 346.22 446.898 346.354C447.301 346.484 447.663 346.678 447.984 346.933C448.305 347.186 448.571 347.496 448.781 347.862C448.991 348.226 449.134 348.642 449.207 349.111ZM453.438 355.132C452.824 355.132 452.289 354.991 451.831 354.71C451.374 354.429 451.019 354.036 450.766 353.53C450.513 353.024 450.387 352.433 450.387 351.757C450.387 351.078 450.513 350.484 450.766 349.976C451.019 349.467 451.374 349.072 451.831 348.791C452.289 348.51 452.824 348.369 453.438 348.369C454.051 348.369 454.587 348.51 455.044 348.791C455.502 349.072 455.857 349.467 456.11 349.976C456.363 350.484 456.489 351.078 456.489 351.757C456.489 352.433 456.363 353.024 456.11 353.53C455.857 354.036 455.502 354.429 455.044 354.71C454.587 354.991 454.051 355.132 453.438 355.132ZM453.442 354.062C453.84 354.062 454.169 353.957 454.431 353.747C454.692 353.537 454.885 353.257 455.01 352.908C455.138 352.558 455.202 352.173 455.202 351.753C455.202 351.335 455.138 350.952 455.01 350.602C454.885 350.25 454.692 349.967 454.431 349.754C454.169 349.541 453.84 349.435 453.442 349.435C453.042 349.435 452.709 349.541 452.445 349.754C452.184 349.967 451.989 350.25 451.861 350.602C451.736 350.952 451.674 351.335 451.674 351.753C451.674 352.173 451.736 352.558 451.861 352.908C451.989 353.257 452.184 353.537 452.445 353.747C452.709 353.957 453.042 354.062 453.442 354.062ZM459.185 351.114V355H457.911V348.455H459.134V349.52H459.215C459.366 349.173 459.602 348.895 459.923 348.685C460.246 348.474 460.654 348.369 461.146 348.369C461.592 348.369 461.982 348.463 462.317 348.651C462.653 348.835 462.913 349.111 463.097 349.477C463.282 349.844 463.374 350.297 463.374 350.837V355H462.1V350.99C462.1 350.516 461.977 350.145 461.729 349.878C461.482 349.608 461.143 349.473 460.711 349.473C460.415 349.473 460.153 349.537 459.923 349.665C459.695 349.793 459.515 349.98 459.381 350.227C459.251 350.472 459.185 350.767 459.185 351.114ZM468.198 348.455V349.477H464.499V348.455H468.198ZM465.513 355V347.696C465.513 347.287 465.603 346.947 465.782 346.678C465.961 346.405 466.198 346.202 466.494 346.068C466.789 345.932 467.11 345.864 467.457 345.864C467.712 345.864 467.931 345.885 468.113 345.928C468.295 345.967 468.43 346.004 468.518 346.038L468.219 347.07C468.16 347.053 468.083 347.033 467.989 347.01C467.896 346.984 467.782 346.972 467.648 346.972C467.339 346.972 467.117 347.048 466.984 347.202C466.853 347.355 466.788 347.577 466.788 347.866V355H465.513ZM469.513 355V348.455H470.787V355H469.513ZM470.156 347.445C469.935 347.445 469.744 347.371 469.585 347.223C469.429 347.072 469.351 346.893 469.351 346.686C469.351 346.476 469.429 346.297 469.585 346.149C469.744 345.999 469.935 345.923 470.156 345.923C470.378 345.923 470.567 345.999 470.723 346.149C470.882 346.297 470.962 346.476 470.962 346.686C470.962 346.893 470.882 347.072 470.723 347.223C470.567 347.371 470.378 347.445 470.156 347.445ZM472.501 355V348.455H473.733V349.494H473.801C473.92 349.142 474.13 348.865 474.431 348.663C474.735 348.459 475.079 348.357 475.463 348.357C475.542 348.357 475.636 348.359 475.744 348.365C475.855 348.371 475.941 348.378 476.004 348.386V349.605C475.953 349.591 475.862 349.575 475.731 349.558C475.6 349.538 475.47 349.528 475.339 349.528C475.038 349.528 474.77 349.592 474.534 349.72C474.301 349.845 474.116 350.02 473.98 350.244C473.843 350.466 473.775 350.719 473.775 351.003V355H472.501ZM477.107 355V348.455H478.33V349.52H478.411C478.547 349.159 478.77 348.878 479.08 348.676C479.389 348.472 479.76 348.369 480.192 348.369C480.629 348.369 480.996 348.472 481.291 348.676C481.589 348.881 481.81 349.162 481.952 349.52H482.02C482.176 349.17 482.425 348.892 482.766 348.685C483.107 348.474 483.513 348.369 483.984 348.369C484.578 348.369 485.062 348.555 485.438 348.928C485.815 349.3 486.004 349.861 486.004 350.611V355H484.73V350.73C484.73 350.287 484.609 349.966 484.368 349.767C484.126 349.568 483.838 349.469 483.503 349.469C483.088 349.469 482.766 349.597 482.536 349.852C482.305 350.105 482.19 350.43 482.19 350.828V355H480.92V350.649C480.92 350.294 480.81 350.009 480.588 349.793C480.366 349.577 480.078 349.469 479.723 349.469C479.482 349.469 479.259 349.533 479.054 349.661C478.852 349.786 478.689 349.96 478.564 350.185C478.442 350.409 478.381 350.669 478.381 350.964V355H477.107ZM490.99 355V346.273H494.101C494.78 346.273 495.342 346.396 495.788 346.643C496.234 346.891 496.568 347.229 496.79 347.658C497.011 348.084 497.122 348.564 497.122 349.098C497.122 349.635 497.01 350.118 496.786 350.547C496.564 350.973 496.229 351.311 495.78 351.561C495.334 351.808 494.773 351.932 494.097 351.932H491.957V350.815H493.977C494.406 350.815 494.754 350.741 495.021 350.594C495.288 350.443 495.484 350.239 495.609 349.98C495.734 349.722 495.797 349.428 495.797 349.098C495.797 348.768 495.734 348.476 495.609 348.22C495.484 347.964 495.287 347.764 495.017 347.619C494.75 347.474 494.398 347.402 493.96 347.402H492.307V355H490.99ZM500.41 355.145C499.995 355.145 499.62 355.068 499.285 354.915C498.95 354.759 498.684 354.533 498.488 354.237C498.295 353.942 498.198 353.58 498.198 353.151C498.198 352.781 498.269 352.477 498.411 352.239C498.553 352 498.745 351.811 498.987 351.672C499.228 351.533 499.498 351.428 499.796 351.357C500.094 351.286 500.398 351.232 500.708 351.195C501.1 351.149 501.418 351.112 501.663 351.084C501.907 351.053 502.085 351.003 502.195 350.935C502.306 350.866 502.362 350.756 502.362 350.602V350.572C502.362 350.2 502.256 349.912 502.046 349.707C501.839 349.503 501.529 349.401 501.117 349.401C500.688 349.401 500.35 349.496 500.103 349.686C499.859 349.874 499.69 350.082 499.596 350.312L498.398 350.04C498.54 349.642 498.748 349.321 499.021 349.077C499.296 348.83 499.613 348.651 499.971 348.54C500.329 348.426 500.705 348.369 501.1 348.369C501.362 348.369 501.638 348.401 501.931 348.463C502.227 348.523 502.502 348.634 502.758 348.795C503.016 348.957 503.228 349.189 503.393 349.49C503.558 349.788 503.64 350.176 503.64 350.653V355H502.396V354.105H502.344C502.262 354.27 502.138 354.432 501.974 354.591C501.809 354.75 501.597 354.882 501.339 354.987C501.08 355.092 500.771 355.145 500.41 355.145ZM500.687 354.122C501.039 354.122 501.34 354.053 501.59 353.913C501.843 353.774 502.035 353.592 502.165 353.368C502.299 353.141 502.366 352.898 502.366 352.639V351.795C502.32 351.841 502.232 351.884 502.102 351.923C501.974 351.96 501.827 351.993 501.663 352.021C501.498 352.047 501.337 352.071 501.181 352.094C501.025 352.114 500.894 352.131 500.789 352.145C500.542 352.176 500.316 352.229 500.112 352.303C499.91 352.376 499.748 352.483 499.626 352.622C499.506 352.759 499.447 352.94 499.447 353.168C499.447 353.483 499.563 353.722 499.796 353.884C500.029 354.043 500.326 354.122 500.687 354.122ZM510.242 350.053L509.087 350.257C509.039 350.109 508.962 349.969 508.857 349.835C508.755 349.702 508.615 349.592 508.439 349.507C508.263 349.422 508.043 349.379 507.779 349.379C507.418 349.379 507.117 349.46 506.875 349.622C506.634 349.781 506.513 349.987 506.513 350.24C506.513 350.459 506.594 350.635 506.756 350.768C506.918 350.902 507.179 351.011 507.54 351.097L508.58 351.335C509.182 351.474 509.631 351.689 509.926 351.979C510.222 352.268 510.37 352.645 510.37 353.108C510.37 353.5 510.256 353.849 510.029 354.156C509.804 354.46 509.49 354.699 509.087 354.872C508.686 355.045 508.222 355.132 507.694 355.132C506.961 355.132 506.363 354.976 505.9 354.663C505.436 354.348 505.152 353.901 505.047 353.321L506.279 353.134C506.355 353.455 506.513 353.697 506.752 353.862C506.99 354.024 507.301 354.105 507.685 354.105C508.103 354.105 508.436 354.018 508.686 353.845C508.936 353.669 509.061 353.455 509.061 353.202C509.061 352.997 508.985 352.825 508.831 352.686C508.681 352.547 508.449 352.442 508.137 352.371L507.029 352.128C506.418 351.989 505.966 351.767 505.674 351.463C505.384 351.159 505.239 350.774 505.239 350.308C505.239 349.922 505.347 349.584 505.563 349.294C505.779 349.004 506.077 348.778 506.458 348.616C506.838 348.452 507.275 348.369 507.766 348.369C508.473 348.369 509.03 348.523 509.436 348.83C509.843 349.134 510.111 349.541 510.242 350.053ZM516.675 350.053L515.521 350.257C515.472 350.109 515.396 349.969 515.29 349.835C515.188 349.702 515.049 349.592 514.873 349.507C514.697 349.422 514.477 349.379 514.212 349.379C513.852 349.379 513.55 349.46 513.309 349.622C513.067 349.781 512.947 349.987 512.947 350.24C512.947 350.459 513.028 350.635 513.19 350.768C513.352 350.902 513.613 351.011 513.974 351.097L515.013 351.335C515.616 351.474 516.065 351.689 516.36 351.979C516.656 352.268 516.803 352.645 516.803 353.108C516.803 353.5 516.69 353.849 516.462 354.156C516.238 354.46 515.924 354.699 515.521 354.872C515.12 355.045 514.656 355.132 514.127 355.132C513.394 355.132 512.796 354.976 512.333 354.663C511.87 354.348 511.586 353.901 511.481 353.321L512.712 353.134C512.789 353.455 512.947 353.697 513.185 353.862C513.424 354.024 513.735 354.105 514.119 354.105C514.536 354.105 514.87 354.018 515.12 353.845C515.37 353.669 515.495 353.455 515.495 353.202C515.495 352.997 515.418 352.825 515.265 352.686C515.114 352.547 514.883 352.442 514.57 352.371L513.462 352.128C512.852 351.989 512.4 351.767 512.107 351.463C511.817 351.159 511.673 350.774 511.673 350.308C511.673 349.922 511.781 349.584 511.996 349.294C512.212 349.004 512.511 348.778 512.891 348.616C513.272 348.452 513.708 348.369 514.2 348.369C514.907 348.369 515.464 348.523 515.87 348.83C516.276 349.134 516.545 349.541 516.675 350.053ZM519.623 355L517.697 348.455H519.014L520.297 353.261H520.36L521.647 348.455H522.964L524.243 353.24H524.306L525.581 348.455H526.897L524.975 355H523.676L522.346 350.274H522.248L520.919 355H519.623ZM530.664 355.132C530.051 355.132 529.515 354.991 529.058 354.71C528.6 354.429 528.245 354.036 527.993 353.53C527.74 353.024 527.613 352.433 527.613 351.757C527.613 351.078 527.74 350.484 527.993 349.976C528.245 349.467 528.6 349.072 529.058 348.791C529.515 348.51 530.051 348.369 530.664 348.369C531.278 348.369 531.814 348.51 532.271 348.791C532.728 349.072 533.083 349.467 533.336 349.976C533.589 350.484 533.716 351.078 533.716 351.757C533.716 352.433 533.589 353.024 533.336 353.53C533.083 354.036 532.728 354.429 532.271 354.71C531.814 354.991 531.278 355.132 530.664 355.132ZM530.669 354.062C531.066 354.062 531.396 353.957 531.657 353.747C531.919 353.537 532.112 353.257 532.237 352.908C532.365 352.558 532.429 352.173 532.429 351.753C532.429 351.335 532.365 350.952 532.237 350.602C532.112 350.25 531.919 349.967 531.657 349.754C531.396 349.541 531.066 349.435 530.669 349.435C530.268 349.435 529.936 349.541 529.672 349.754C529.41 349.967 529.216 350.25 529.088 350.602C528.963 350.952 528.9 351.335 528.9 351.753C528.9 352.173 528.963 352.558 529.088 352.908C529.216 353.257 529.41 353.537 529.672 353.747C529.936 353.957 530.268 354.062 530.669 354.062ZM535.138 355V348.455H536.369V349.494H536.438C536.557 349.142 536.767 348.865 537.068 348.663C537.372 348.459 537.716 348.357 538.099 348.357C538.179 348.357 538.273 348.359 538.381 348.365C538.491 348.371 538.578 348.378 538.641 348.386V349.605C538.589 349.591 538.499 349.575 538.368 349.558C538.237 349.538 538.107 349.528 537.976 349.528C537.675 349.528 537.406 349.592 537.17 349.72C536.938 349.845 536.753 350.02 536.616 350.244C536.48 350.466 536.412 350.719 536.412 351.003V355H535.138ZM541.959 355.128C541.431 355.128 540.959 354.993 540.544 354.723C540.132 354.45 539.809 354.062 539.573 353.56C539.34 353.054 539.223 352.447 539.223 351.74C539.223 351.033 539.341 350.428 539.577 349.925C539.816 349.422 540.142 349.037 540.557 348.77C540.972 348.503 541.442 348.369 541.968 348.369C542.374 348.369 542.701 348.438 542.948 348.574C543.198 348.707 543.391 348.864 543.527 349.043C543.667 349.222 543.775 349.379 543.851 349.516H543.928V346.273H545.202V355H543.958V353.982H543.851C543.775 354.121 543.664 354.28 543.519 354.459C543.377 354.638 543.181 354.794 542.931 354.928C542.681 355.061 542.357 355.128 541.959 355.128ZM542.24 354.041C542.607 354.041 542.917 353.945 543.169 353.751C543.425 353.555 543.618 353.284 543.749 352.938C543.882 352.591 543.949 352.187 543.949 351.727C543.949 351.273 543.884 350.875 543.753 350.534C543.623 350.193 543.431 349.928 543.178 349.737C542.925 349.547 542.613 349.452 542.24 349.452C541.857 349.452 541.537 349.551 541.282 349.75C541.026 349.949 540.833 350.22 540.702 350.564C540.574 350.908 540.51 351.295 540.51 351.727C540.51 352.165 540.576 352.558 540.706 352.908C540.837 353.257 541.03 353.534 541.286 353.739C541.544 353.94 541.863 354.041 542.24 354.041Z" fill="black"/>
<path d="M427 346.667H428.667C428.888 346.667 429.1 346.754 429.256 346.911C429.412 347.067 429.5 347.279 429.5 347.5V357.5C429.5 357.721 429.412 357.933 429.256 358.089C429.1 358.246 428.888 358.333 428.667 358.333H415.333C415.112 358.333 414.9 358.246 414.744 358.089C414.588 357.933 414.5 357.721 414.5 357.5V347.5C414.5 347.279 414.588 347.067 414.744 346.911C414.9 346.754 415.112 346.667 415.333 346.667H417V345.833C417 344.507 417.527 343.235 418.464 342.298C419.402 341.36 420.674 340.833 422 340.833C423.326 340.833 424.598 341.36 425.536 342.298C426.473 343.235 427 344.507 427 345.833V346.667ZM416.167 348.333V356.667H427.833V348.333H416.167ZM421.167 351.667H422.833V353.333H421.167V351.667ZM417.833 351.667H419.5V353.333H417.833V351.667ZM424.5 351.667H426.167V353.333H424.5V351.667ZM425.333 346.667V345.833C425.333 344.949 424.982 344.101 424.357 343.476C423.732 342.851 422.884 342.5 422 342.5C421.116 342.5 420.268 342.851 419.643 343.476C419.018 344.101 418.667 344.949 418.667 345.833V346.667H425.333Z" fill="#444444"/>
<path d="M763.008 351.304C761.604 348.708 759.142 347.137 756.417 347.137C753.692 347.137 751.225 348.708 749.833 351.304L749.717 351.5L749.825 351.7C751.229 354.296 753.692 355.867 756.417 355.867C759.142 355.867 761.608 354.317 763.008 351.7L763.117 351.5L763.008 351.304ZM756.417 355.012C754.071 355.012 751.917 353.704 750.667 351.5C751.917 349.296 754.071 347.987 756.417 347.987C758.763 347.987 760.892 349.3 762.163 351.5C760.892 353.704 758.758 355.012 756.417 355.012V355.012Z" fill="#444444"/>
<path d="M756.538 348.654C755.973 348.658 755.422 348.83 754.954 349.147C754.487 349.464 754.123 349.913 753.911 350.436C753.698 350.959 753.645 351.534 753.759 352.087C753.872 352.641 754.147 353.148 754.549 353.545C754.951 353.942 755.461 354.212 756.016 354.319C756.571 354.426 757.145 354.366 757.666 354.148C758.187 353.929 758.631 353.56 758.943 353.089C759.254 352.618 759.419 352.065 759.417 351.5C759.415 351.124 759.339 350.752 759.194 350.405C759.048 350.058 758.835 349.744 758.568 349.48C758.3 349.215 757.983 349.006 757.635 348.865C757.287 348.723 756.914 348.651 756.538 348.654V348.654ZM756.538 353.538C756.139 353.533 755.75 353.411 755.42 353.187C755.09 352.963 754.833 352.646 754.683 352.276C754.532 351.906 754.495 351.501 754.574 351.109C754.654 350.718 754.847 350.359 755.13 350.078C755.412 349.796 755.772 349.604 756.163 349.527C756.555 349.449 756.961 349.488 757.33 349.64C757.699 349.792 758.014 350.05 758.238 350.381C758.461 350.712 758.581 351.101 758.584 351.5C758.585 351.769 758.532 352.035 758.43 352.283C758.327 352.531 758.177 352.757 757.986 352.946C757.796 353.136 757.57 353.286 757.321 353.387C757.073 353.489 756.806 353.54 756.538 353.538V353.538Z" fill="#444444"/>
<g filter="url(#filter6_d_122_3)">
<rect x="400" y="164" width="380" height="44" rx="4" fill="white"/>
<rect x="400.5" y="164.5" width="379" height="43" rx="3.5" stroke="#E0E0E0"/>
</g>
<path d="M441.959 190V181.273H445.07C445.749 181.273 446.311 181.396 446.757 181.643C447.203 181.891 447.537 182.229 447.759 182.658C447.98 183.084 448.091 183.564 448.091 184.098C448.091 184.635 447.979 185.118 447.754 185.547C447.533 185.973 447.197 186.311 446.749 186.561C446.303 186.808 445.741 186.932 445.065 186.932H442.926V185.815H444.946C445.375 185.815 445.723 185.741 445.99 185.594C446.257 185.443 446.453 185.239 446.578 184.98C446.703 184.722 446.766 184.428 446.766 184.098C446.766 183.768 446.703 183.476 446.578 183.22C446.453 182.964 446.256 182.764 445.986 182.619C445.719 182.474 445.366 182.402 444.929 182.402H443.276V190H441.959ZM450.806 186.114V190H449.532V181.273H450.789V184.52H450.87C451.024 184.168 451.258 183.888 451.574 183.68C451.889 183.473 452.301 183.369 452.809 183.369C453.258 183.369 453.65 183.462 453.985 183.646C454.324 183.831 454.585 184.107 454.77 184.473C454.957 184.837 455.051 185.291 455.051 185.837V190H453.777V185.99C453.777 185.51 453.653 185.138 453.406 184.874C453.159 184.607 452.815 184.473 452.375 184.473C452.074 184.473 451.804 184.537 451.565 184.665C451.329 184.793 451.143 184.98 451.007 185.227C450.873 185.472 450.806 185.767 450.806 186.114ZM459.508 190.132C458.895 190.132 458.359 189.991 457.902 189.71C457.444 189.429 457.089 189.036 456.836 188.53C456.583 188.024 456.457 187.433 456.457 186.757C456.457 186.078 456.583 185.484 456.836 184.976C457.089 184.467 457.444 184.072 457.902 183.791C458.359 183.51 458.895 183.369 459.508 183.369C460.122 183.369 460.657 183.51 461.115 183.791C461.572 184.072 461.927 184.467 462.18 184.976C462.433 185.484 462.559 186.078 462.559 186.757C462.559 187.433 462.433 188.024 462.18 188.53C461.927 189.036 461.572 189.429 461.115 189.71C460.657 189.991 460.122 190.132 459.508 190.132ZM459.512 189.062C459.91 189.062 460.24 188.957 460.501 188.747C460.762 188.537 460.956 188.257 461.081 187.908C461.208 187.558 461.272 187.173 461.272 186.753C461.272 186.335 461.208 185.952 461.081 185.602C460.956 185.25 460.762 184.967 460.501 184.754C460.24 184.541 459.91 184.435 459.512 184.435C459.112 184.435 458.779 184.541 458.515 184.754C458.254 184.967 458.059 185.25 457.931 185.602C457.806 185.952 457.744 186.335 457.744 186.753C457.744 187.173 457.806 187.558 457.931 187.908C458.059 188.257 458.254 188.537 458.515 188.747C458.779 188.957 459.112 189.062 459.512 189.062ZM465.256 186.114V190H463.982V183.455H465.205V184.52H465.286C465.436 184.173 465.672 183.895 465.993 183.685C466.317 183.474 466.724 183.369 467.216 183.369C467.662 183.369 468.053 183.463 468.388 183.651C468.723 183.835 468.983 184.111 469.168 184.477C469.352 184.844 469.445 185.297 469.445 185.837V190H468.17V185.99C468.17 185.516 468.047 185.145 467.8 184.878C467.553 184.608 467.213 184.473 466.781 184.473C466.486 184.473 466.223 184.537 465.993 184.665C465.766 184.793 465.585 184.98 465.452 185.227C465.321 185.472 465.256 185.767 465.256 186.114ZM473.974 190.132C473.33 190.132 472.774 189.994 472.308 189.719C471.845 189.44 471.487 189.05 471.234 188.547C470.984 188.041 470.859 187.449 470.859 186.77C470.859 186.099 470.984 185.509 471.234 184.997C471.487 184.486 471.839 184.087 472.291 183.8C472.746 183.513 473.277 183.369 473.885 183.369C474.254 183.369 474.612 183.43 474.959 183.553C475.305 183.675 475.616 183.866 475.892 184.128C476.168 184.389 476.385 184.729 476.544 185.146C476.703 185.561 476.783 186.065 476.783 186.659V187.111H471.58V186.156H475.534C475.534 185.821 475.466 185.524 475.33 185.266C475.193 185.004 475.001 184.798 474.754 184.648C474.51 184.497 474.223 184.422 473.893 184.422C473.536 184.422 473.223 184.51 472.956 184.686C472.692 184.859 472.487 185.087 472.342 185.368C472.2 185.646 472.129 185.949 472.129 186.276V187.021C472.129 187.459 472.206 187.831 472.359 188.138C472.516 188.445 472.733 188.679 473.011 188.841C473.29 189 473.615 189.08 473.987 189.08C474.229 189.08 474.449 189.045 474.648 188.977C474.847 188.906 475.018 188.801 475.163 188.662C475.308 188.523 475.419 188.351 475.496 188.146L476.702 188.364C476.605 188.719 476.432 189.03 476.182 189.297C475.935 189.561 475.624 189.767 475.249 189.915C474.876 190.06 474.452 190.132 473.974 190.132ZM488.518 181.273V190H487.308L482.872 183.599H482.791V190H481.474V181.273H482.693L487.134 187.682H487.214V181.273H488.518ZM494.483 187.286V183.455H495.762V190H494.509V188.866H494.441C494.29 189.216 494.049 189.507 493.716 189.74C493.387 189.97 492.976 190.085 492.485 190.085C492.064 190.085 491.692 189.993 491.368 189.808C491.047 189.621 490.794 189.344 490.61 188.977C490.428 188.611 490.337 188.158 490.337 187.618V183.455H491.611V187.464C491.611 187.911 491.735 188.266 491.982 188.53C492.229 188.794 492.55 188.926 492.945 188.926C493.184 188.926 493.421 188.866 493.657 188.747C493.895 188.628 494.093 188.447 494.249 188.206C494.408 187.964 494.486 187.658 494.483 187.286ZM497.474 190V183.455H498.697V184.52H498.778C498.914 184.159 499.137 183.878 499.447 183.676C499.756 183.472 500.127 183.369 500.559 183.369C500.996 183.369 501.363 183.472 501.658 183.676C501.957 183.881 502.177 184.162 502.319 184.52H502.387C502.543 184.17 502.792 183.892 503.133 183.685C503.474 183.474 503.88 183.369 504.352 183.369C504.945 183.369 505.43 183.555 505.805 183.928C506.183 184.3 506.371 184.861 506.371 185.611V190H505.097V185.73C505.097 185.287 504.977 184.966 504.735 184.767C504.494 184.568 504.205 184.469 503.87 184.469C503.455 184.469 503.133 184.597 502.903 184.852C502.673 185.105 502.558 185.43 502.558 185.828V190H501.288V185.649C501.288 185.294 501.177 185.009 500.955 184.793C500.734 184.577 500.445 184.469 500.09 184.469C499.849 184.469 499.626 184.533 499.421 184.661C499.219 184.786 499.056 184.96 498.931 185.185C498.809 185.409 498.748 185.669 498.748 185.964V190H497.474ZM508.181 190V181.273H509.456V184.516H509.532C509.606 184.379 509.713 184.222 509.852 184.043C509.991 183.864 510.184 183.707 510.431 183.574C510.679 183.438 511.005 183.369 511.412 183.369C511.94 183.369 512.412 183.503 512.826 183.77C513.241 184.037 513.566 184.422 513.802 184.925C514.041 185.428 514.16 186.033 514.16 186.74C514.16 187.447 514.042 188.054 513.806 188.56C513.571 189.062 513.247 189.45 512.835 189.723C512.423 189.993 511.953 190.128 511.424 190.128C511.027 190.128 510.701 190.061 510.449 189.928C510.199 189.794 510.002 189.638 509.86 189.459C509.718 189.28 509.609 189.121 509.532 188.982H509.426V190H508.181ZM509.43 186.727C509.43 187.187 509.497 187.591 509.63 187.938C509.764 188.284 509.957 188.555 510.21 188.751C510.463 188.945 510.772 189.041 511.139 189.041C511.52 189.041 511.838 188.94 512.093 188.739C512.349 188.534 512.542 188.257 512.673 187.908C512.806 187.558 512.873 187.165 512.873 186.727C512.873 186.295 512.808 185.908 512.677 185.564C512.549 185.22 512.356 184.949 512.098 184.75C511.842 184.551 511.522 184.452 511.139 184.452C510.77 184.452 510.457 184.547 510.201 184.737C509.949 184.928 509.757 185.193 509.626 185.534C509.495 185.875 509.43 186.273 509.43 186.727ZM518.412 190.132C517.767 190.132 517.212 189.994 516.746 189.719C516.283 189.44 515.925 189.05 515.672 188.547C515.422 188.041 515.297 187.449 515.297 186.77C515.297 186.099 515.422 185.509 515.672 184.997C515.925 184.486 516.277 184.087 516.729 183.8C517.183 183.513 517.714 183.369 518.322 183.369C518.692 183.369 519.05 183.43 519.396 183.553C519.743 183.675 520.054 183.866 520.33 184.128C520.605 184.389 520.822 184.729 520.982 185.146C521.141 185.561 521.22 186.065 521.22 186.659V187.111H516.017V186.156H519.972C519.972 185.821 519.903 185.524 519.767 185.266C519.631 185.004 519.439 184.798 519.192 184.648C518.947 184.497 518.661 184.422 518.331 184.422C517.973 184.422 517.661 184.51 517.393 184.686C517.129 184.859 516.925 185.087 516.78 185.368C516.638 185.646 516.567 185.949 516.567 186.276V187.021C516.567 187.459 516.643 187.831 516.797 188.138C516.953 188.445 517.17 188.679 517.449 188.841C517.727 189 518.053 189.08 518.425 189.08C518.666 189.08 518.886 189.045 519.085 188.977C519.284 188.906 519.456 188.801 519.601 188.662C519.746 188.523 519.857 188.351 519.933 188.146L521.139 188.364C521.043 188.719 520.869 189.03 520.619 189.297C520.372 189.561 520.061 189.767 519.686 189.915C519.314 190.06 518.889 190.132 518.412 190.132ZM522.634 190V183.455H523.865V184.494H523.934C524.053 184.142 524.263 183.865 524.564 183.663C524.868 183.459 525.212 183.357 525.596 183.357C525.675 183.357 525.769 183.359 525.877 183.365C525.988 183.371 526.074 183.378 526.137 183.386V184.605C526.086 184.591 525.995 184.575 525.864 184.558C525.733 184.538 525.603 184.528 525.472 184.528C525.171 184.528 524.902 184.592 524.667 184.72C524.434 184.845 524.249 185.02 524.113 185.244C523.976 185.466 523.908 185.719 523.908 186.003V190H522.634Z" fill="black"/>
<path d="M417.981 176.106L417.1 176.376C416.315 176.617 415.615 177.08 415.081 177.713C414.547 178.345 414.201 179.119 414.085 179.945C413.72 182.53 414.536 185.554 416.503 189.021C418.465 192.479 420.624 194.707 423.002 195.683C423.766 195.996 424.602 196.08 425.411 195.923C426.22 195.767 426.968 195.378 427.566 194.801L428.232 194.159C428.664 193.742 428.933 193.18 428.989 192.577C429.045 191.974 428.884 191.37 428.535 190.879L426.869 188.528C426.644 188.211 426.327 187.973 425.962 187.849C425.598 187.724 425.204 187.718 424.836 187.833L422.316 188.617L422.251 188.629C421.973 188.671 421.332 188.059 420.534 186.651C419.698 185.179 419.526 184.317 419.756 184.094L421.037 182.878C421.506 182.433 421.826 181.851 421.953 181.212C422.079 180.572 422.006 179.909 421.744 179.314L420.93 177.475C420.686 176.922 420.252 176.478 419.709 176.226C419.167 175.974 418.553 175.931 417.982 176.106H417.981ZM419.811 177.988L420.622 179.827C420.78 180.184 420.824 180.582 420.748 180.965C420.672 181.349 420.48 181.698 420.199 181.965L418.914 183.183C418.092 183.976 418.365 185.329 419.471 187.277C420.51 189.11 421.459 190.015 422.478 189.857L422.631 189.825L425.196 189.028C425.319 188.99 425.45 188.992 425.572 189.033C425.693 189.075 425.799 189.154 425.874 189.26L427.54 191.61C427.715 191.856 427.795 192.158 427.768 192.459C427.74 192.761 427.605 193.042 427.389 193.251L426.722 193.893C426.295 194.305 425.761 194.583 425.183 194.694C424.605 194.806 424.008 194.746 423.462 194.522C421.376 193.667 419.404 191.633 417.568 188.396C415.726 185.151 414.98 182.391 415.301 180.122C415.384 179.532 415.631 178.979 416.012 178.528C416.394 178.076 416.894 177.745 417.455 177.573L418.336 177.303C418.621 177.215 418.928 177.237 419.2 177.363C419.471 177.489 419.688 177.711 419.81 177.988H419.811Z" fill="black"/>
<defs>
<filter id="filter0_d_122_3" x="0" y="20" width="836" height="496" filterUnits="userSpaceOnUse" color-interpolation-filters="sRGB">
<feFlood flood-opacity="0" result="BackgroundImageFix"/>
<feColorMatrix in="SourceAlpha" type="matrix" values="0 0 0 0 0 0 0 0 0 0 0 0 0 0 0 0 0 0 127 0" result="hardAlpha"/>
<feMorphology radius="8" operator="dilate" in="SourceAlpha" result="effect1_dropShadow_122_3"/>
<feOffset/>
<feGaussianBlur stdDeviation="5"/>
<feComposite in2="hardAlpha" operator="out"/>
<feColorMatrix type="matrix" values="0 0 0 0 0.620833 0 0 0 0 0.620833 0 0 0 0 0.620833 0 0 0 0.25 0"/>
<feBlend mode="normal" in2="BackgroundImageFix" result="effect1_dropShadow_122_3"/>
<feBlend mode="normal" in="SourceGraphic" in2="effect1_dropShadow_122_3" result="shape"/>
</filter>
<filter id="filter1_d_122_3" x="329" y="0" width="532" height="543" filterUnits="userSpaceOnUse" color-interpolation-filters="sRGB">
<feFlood flood-opacity="0" result="BackgroundImageFix"/>
<feColorMatrix in="SourceAlpha" type="matrix" values="0 0 0 0 0 0 0 0 0 0 0 0 0 0 0 0 0 0 127 0" result="hardAlpha"/>
<feOffset dy="4"/>
<feGaussianBlur stdDeviation="25"/>
<feComposite in2="hardAlpha" operator="out"/>
<feColorMatrix type="matrix" values="0 0 0 0 0.8625 0 0 0 0 0.8625 0 0 0 0 0.8625 0 0 0 1 0"/>
<feBlend mode="normal" in2="BackgroundImageFix" result="effect1_dropShadow_122_3"/>
<feBlend mode="normal" in="SourceGraphic" in2="effect1_dropShadow_122_3" result="shape"/>
</filter>
<filter id="filter2_d_122_3" x="392" y="101" width="396" height="60" filterUnits="userSpaceOnUse" color-interpolation-filters="sRGB">
<feFlood flood-opacity="0" result="BackgroundImageFix"/>
<feColorMatrix in="SourceAlpha" type="matrix" values="0 0 0 0 0 0 0 0 0 0 0 0 0 0 0 0 0 0 127 0" result="hardAlpha"/>
<feOffset/>
<feGaussianBlur stdDeviation="4"/>
<feComposite in2="hardAlpha" operator="out"/>
<feColorMatrix type="matrix" values="0 0 0 0 0.933333 0 0 0 0 0.933333 0 0 0 0 0.933333 0 0 0 1 0"/>
<feBlend mode="normal" in2="BackgroundImageFix" result="effect1_dropShadow_122_3"/>
<feBlend mode="normal" in="SourceGraphic" in2="effect1_dropShadow_122_3" result="shape"/>
</filter>
<filter id="filter3_d_122_3" x="392" y="211" width="396" height="60" filterUnits="userSpaceOnUse" color-interpolation-filters="sRGB">
<feFlood flood-opacity="0" result="BackgroundImageFix"/>
<feColorMatrix in="SourceAlpha" type="matrix" values="0 0 0 0 0 0 0 0 0 0 0 0 0 0 0 0 0 0 127 0" result="hardAlpha"/>
<feOffset/>
<feGaussianBlur stdDeviation="4"/>
<feComposite in2="hardAlpha" operator="out"/>
<feColorMatrix type="matrix" values="0 0 0 0 0.933333 0 0 0 0 0.933333 0 0 0 0 0.933333 0 0 0 1 0"/>
<feBlend mode="normal" in2="BackgroundImageFix" result="effect1_dropShadow_122_3"/>
<feBlend mode="normal" in="SourceGraphic" in2="effect1_dropShadow_122_3" result="shape"/>
</filter>
<filter id="filter4_d_122_3" x="392" y="266" width="396" height="60" filterUnits="userSpaceOnUse" color-interpolation-filters="sRGB">
<feFlood flood-opacity="0" result="BackgroundImageFix"/>
<feColorMatrix in="SourceAlpha" type="matrix" values="0 0 0 0 0 0 0 0 0 0 0 0 0 0 0 0 0 0 127 0" result="hardAlpha"/>
<feOffset/>
<feGaussianBlur stdDeviation="4"/>
<feComposite in2="hardAlpha" operator="out"/>
<feColorMatrix type="matrix" values="0 0 0 0 0.933333 0 0 0 0 0.933333 0 0 0 0 0.933333 0 0 0 1 0"/>
<feBlend mode="normal" in2="BackgroundImageFix" result="effect1_dropShadow_122_3"/>
<feBlend mode="normal" in="SourceGraphic" in2="effect1_dropShadow_122_3" result="shape"/>
</filter>
<filter id="filter5_d_122_3" x="392" y="321" width="396" height="60" filterUnits="userSpaceOnUse" color-interpolation-filters="sRGB">
<feFlood flood-opacity="0" result="BackgroundImageFix"/>
<feColorMatrix in="SourceAlpha" type="matrix" values="0 0 0 0 0 0 0 0 0 0 0 0 0 0 0 0 0 0 127 0" result="hardAlpha"/>
<feOffset/>
<feGaussianBlur stdDeviation="4"/>
<feComposite in2="hardAlpha" operator="out"/>
<feColorMatrix type="matrix" values="0 0 0 0 0.933333 0 0 0 0 0.933333 0 0 0 0 0.933333 0 0 0 1 0"/>
<feBlend mode="normal" in2="BackgroundImageFix" result="effect1_dropShadow_122_3"/>
<feBlend mode="normal" in="SourceGraphic" in2="effect1_dropShadow_122_3" result="shape"/>
</filter>
<filter id="filter6_d_122_3" x="392" y="156" width="396" height="60" filterUnits="userSpaceOnUse" color-interpolation-filters="sRGB">
<feFlood flood-opacity="0" result="BackgroundImageFix"/>
<feColorMatrix in="SourceAlpha" type="matrix" values="0 0 0 0 0 0 0 0 0 0 0 0 0 0 0 0 0 0 127 0" result="hardAlpha"/>
<feOffset/>
<feGaussianBlur stdDeviation="4"/>
<feComposite in2="hardAlpha" operator="out"/>
<feColorMatrix type="matrix" values="0 0 0 0 0.933333 0 0 0 0 0.933333 0 0 0 0 0.933333 0 0 0 1 0"/>
<feBlend mode="normal" in2="BackgroundImageFix" result="effect1_dropShadow_122_3"/>
<feBlend mode="normal" in="SourceGraphic" in2="effect1_dropShadow_122_3" result="shape"/>
</filter>
</defs>
</svg>
