<svg width="107" height="112" viewBox="0 0 112 112" fill="none" xmlns="http://www.w3.org/2000/svg">
<path d="M99.5265 36.5191L99.5323 36.5249C99.876 36.8658 100.149 37.2713 100.335 37.7181L101.258 37.3335L100.335 37.7181C100.521 38.1649 100.617 38.6442 100.617 39.1282C100.617 39.6123 100.521 40.0915 100.335 40.5383L101.258 40.9229L100.335 40.5384C100.149 40.9852 99.876 41.3907 99.5323 41.7316L99.5294 41.7345L85.5376 55.7263C85.1905 56.0567 84.7819 56.3159 84.335 56.4892L84.3134 56.4976L84.2923 56.5069C83.861 56.6975 83.3947 56.796 82.9232 56.796C82.4517 56.796 81.9854 56.6975 81.5541 56.5069L81.5329 56.4976L81.5114 56.4892C81.0645 56.3159 80.6559 56.0567 80.3088 55.7263L66.317 41.7345C65.6257 41.0432 65.2374 40.1058 65.2374 39.1282C65.2374 38.1507 65.6257 37.2132 66.317 36.522C67.0082 35.8308 67.9457 35.4425 68.9232 35.4425C69.9001 35.4425 70.8371 35.8303 71.5282 36.5208C71.5286 36.5212 71.529 36.5216 71.5294 36.522L77.5467 42.5859L79.2565 44.309V41.8816V15.7949C79.2565 14.8224 79.6428 13.8898 80.3305 13.2022C81.0181 12.5145 81.9507 12.1282 82.9232 12.1282C83.8956 12.1282 84.8283 12.5145 85.5159 13.2022C86.2035 13.8898 86.5899 14.8224 86.5899 15.7949V41.8816V44.309L88.2997 42.5859L94.3197 36.5193L94.3199 36.5191C94.6607 36.1754 95.0662 35.9027 95.5131 35.7165C95.9599 35.5303 96.4391 35.4345 96.9232 35.4345C97.4072 35.4345 97.8865 35.5303 98.3333 35.7165C98.7801 35.9027 99.1856 36.1754 99.5265 36.5191ZM77.5494 74.2753L79.2565 75.9825V73.5682V71.7949C79.2565 70.8224 79.6428 69.8898 80.3304 69.2022C81.0181 68.5145 81.9507 68.1282 82.9232 68.1282C83.8956 68.1282 84.8283 68.5145 85.5159 69.2022C86.2035 69.8898 86.5899 70.8224 86.5899 71.7949V95.1282C86.5899 98.576 85.2202 101.883 82.7822 104.321C80.3443 106.759 77.0377 108.128 73.5899 108.128H17.5898C14.142 108.128 10.8354 106.759 8.39746 104.321C5.95948 101.883 4.58984 98.576 4.58984 95.1282V39.1282C4.58984 35.6804 5.95948 32.3738 8.39746 29.9358C10.8354 27.4979 14.142 26.1282 17.5898 26.1282H54.9232C55.8956 26.1282 56.8283 26.5145 57.5159 27.2022C58.2035 27.8898 58.5898 28.8224 58.5898 29.7949C58.5898 30.7674 58.2035 31.7 57.5159 32.3876C56.8283 33.0753 55.8956 33.4616 54.9232 33.4616H17.5898C16.087 33.4616 14.6456 34.0586 13.5829 35.1213C12.5202 36.184 11.9232 37.6253 11.9232 39.1282V65.2616V67.6758L13.6303 65.9687L20.5281 59.0709C22.8139 56.8993 25.8466 55.6882 28.9998 55.6882C32.1531 55.6882 35.1857 56.8992 37.4716 59.0709L49.0361 70.6353L49.7432 71.3424L50.4503 70.6353L53.7141 67.3715C53.7148 67.3708 53.7154 67.3702 53.716 67.3696C55.9672 65.1371 59.0093 63.8845 62.1798 63.8845C65.3506 63.8845 68.3929 65.1373 70.6441 67.3701C70.6446 67.3705 70.6451 67.371 70.6456 67.3715L77.5494 74.2753ZM12.2161 77.7611L11.9232 78.054V78.4682V95.1282C11.9232 96.6311 12.5202 98.0725 13.5829 99.1352C14.6456 100.198 16.087 100.795 17.5898 100.795H66.4032H68.8174L67.1103 99.0878L47.0436 79.0211L32.2503 64.2278L32.2418 64.2193L32.2331 64.211C31.3615 63.3804 30.2038 62.9171 28.9998 62.9171C27.7959 62.9171 26.6382 63.3804 25.7666 64.211L25.7579 64.2193L25.7494 64.2278L12.2161 77.7611ZM79.2565 95.1357V95.1282V86.7749V86.3627L78.9661 86.0702L65.4841 72.495C65.4832 72.4941 65.4823 72.4931 65.4813 72.4922C65.0542 72.057 64.5448 71.7113 63.9826 71.475C63.4192 71.2383 62.8143 71.1164 62.2032 71.1164C61.5921 71.1164 60.9871 71.2383 60.4238 71.475C59.8621 71.7111 59.353 72.0564 58.9262 72.491C58.9249 72.4924 58.9235 72.4937 58.9222 72.495L55.6627 75.7545L54.9572 76.46L55.6612 77.1671L76.7078 98.3071L77.5201 99.1229L78.2142 98.2046C78.8827 97.3204 79.2482 96.2442 79.2565 95.1357Z" stroke="#081371" stroke-width="2"/>
</svg>
