<svg width="15" height="20" viewBox="0 0 15 20" fill="none" xmlns="http://www.w3.org/2000/svg">
<path d="M3.98053 0.105938L3.09964 0.376014C2.31528 0.616743 1.61482 1.0805 1.08069 1.71269C0.546565 2.34489 0.201006 3.11921 0.0846868 3.94453C-0.280203 6.53026 0.535578 9.55362 2.50254 13.0209C4.46459 16.4793 6.62445 18.7075 9.00176 19.6827C9.7656 19.996 10.6018 20.0795 11.4109 19.9233C12.22 19.767 12.968 19.3776 13.566 18.8012L14.2318 18.1586C14.6642 17.7421 14.9334 17.18 14.9892 16.5768C15.045 15.9735 14.8837 15.3702 14.5353 14.8789L12.8693 12.5282C12.6441 12.2109 12.3269 11.9732 11.9623 11.8485C11.5977 11.7239 11.2039 11.7184 10.836 11.833L8.31621 12.617L8.25109 12.6295C7.97343 12.6708 7.33211 12.0593 6.53353 10.6514C5.69809 9.17851 5.52609 8.31702 5.75584 8.09445L7.03725 6.87786C7.50585 6.43331 7.82595 5.85062 7.95264 5.21153C8.07933 4.57245 8.00627 3.90903 7.74369 3.31435L6.93036 1.47508C6.6858 0.921598 6.25181 0.477516 5.70931 0.225612C5.1668 -0.0262915 4.5528 -0.0688261 3.98176 0.105938H3.98053ZM5.81112 1.98772L6.62199 3.82699C6.77991 4.18363 6.82407 4.58166 6.74826 4.96516C6.67246 5.34866 6.4805 5.69835 6.19936 5.9651L4.91426 7.18294C4.09233 7.97567 4.36508 9.32855 5.4708 11.2766C6.51019 13.1096 7.45865 14.0149 8.47838 13.8573L8.63073 13.8248L11.196 13.0284C11.3186 12.99 11.45 12.9917 11.5716 13.0332C11.6932 13.0747 11.799 13.1539 11.8742 13.2597L13.5402 15.6103C13.7146 15.856 13.7954 16.1577 13.7676 16.4595C13.7398 16.7612 13.6053 17.0424 13.389 17.2508L12.7219 17.8935C12.2948 18.3049 11.7606 18.5828 11.1828 18.6943C10.605 18.8058 10.0079 18.7461 9.46248 18.5224C7.37634 17.6672 5.40446 15.6328 3.56773 12.3957C1.72608 9.151 0.980326 6.39147 1.30099 4.12208C1.38399 3.53245 1.6308 2.97923 2.01236 2.52756C2.39392 2.07588 2.89434 1.74456 3.4547 1.5726L4.33559 1.30253C4.62119 1.21519 4.92825 1.23655 5.19951 1.36262C5.47077 1.48869 5.68772 1.71087 5.80989 1.98772H5.81112Z" fill="black"/>
</svg>
